<svg xmlns="http://www.w3.org/2000/svg" xmlns:xlink="http://www.w3.org/1999/xlink" viewBox="0 0 470.56 123.44"><defs><style>.cls-1{fill:none;}.cls-2{isolation:isolate;}.cls-3{font-size:51.97px;fill:#fff;font-family:FedraSansPro-Normal, Fedra Sans Pro;}.cls-4{letter-spacing:-0.03em;}.cls-5{letter-spacing:-0.02em;}.cls-6{letter-spacing:-0.05em;}.cls-7,.cls-87{fill:#ff2323;}.cls-8{fill:url(#radial-gradient);}.cls-9{fill:url(#radial-gradient-2);}.cls-10{fill:url(#linear-gradient);}.cls-11{mix-blend-mode:multiply;}.cls-12{clip-path:url(#clip-path);}.cls-13{fill:#dfdfdd;}.cls-14{fill:#dededc;}.cls-15{fill:#dddddb;}.cls-16{fill:#dcdcda;}.cls-17{fill:#dbdbd9;}.cls-18{fill:#dadad8;}.cls-19{fill:#d9d9d7;}.cls-20{fill:#d7d7d6;}.cls-21{fill:#d6d6d5;}.cls-22{fill:#d5d5d4;}.cls-23{fill:#d4d4d3;}.cls-24{fill:#d3d3d2;}.cls-25{fill:#d2d2d1;}.cls-26{fill:#d1d1d0;}.cls-27{fill:#d2d0cf;}.cls-28{fill:#d1cfce;}.cls-29{fill:#d1cdcc;}.cls-30{fill:#d0cccb;}.cls-31{fill:#d1cbca;}.cls-32{fill:#d0cac9;}.cls-33{fill:#cfc9c9;}.cls-34{fill:#cec8c8;}.cls-35{fill:#ccc8c7;}.cls-36{fill:#cbc7c7;}.cls-37{fill:#cac6c6;}.cls-38{fill:#c9c5c5;}.cls-39{fill:#c8c4c5;}.cls-40{fill:#c7c3c4;}.cls-41{fill:#c7c2c3;}.cls-42{fill:#c6c1c2;}.cls-43{fill:#c4c1c2;}.cls-44{fill:#c3c0c1;}.cls-45{fill:#c2bfc0;}.cls-46{fill:#c1bec0;}.cls-47{fill:#c0bdbf;}.cls-48{fill:#bebcbe;}.cls-49{fill:#bdbbbf;}.cls-50{fill:#bcbabe;}.cls-51{fill:#bababd;}.cls-52{fill:#b9b9bd;}.cls-53{fill:#b8b8bc;}.cls-54{fill:#b7b7bb;}.cls-55{fill:#b6b6bb;}.cls-56{fill:#b5b5ba;}.cls-57{fill:#b4b4b9;}.cls-58{fill:#b3b3b8;}.cls-59{fill:#b2b3b8;}.cls-60{fill:#b1b2b7;}.cls-61{fill:#b0b2b6;}.cls-62{fill:#afb0b6;}.cls-63{fill:#aeb0b5;}.cls-64{fill:#b3b4b8;}.cls-65{fill:#b5b5b9;}.cls-66{fill:#b6b6ba;}.cls-67{fill:#b8b8bb;}.cls-68{fill:#b9b9bc;}.cls-69{fill:#bbbbbc;}.cls-70{fill:#bcbcbd;}.cls-71{fill:#bfbdbe;}.cls-72{fill:#c0bdbe;}.cls-73{fill:#c1bebf;}.cls-74{fill:#c2bfbf;}.cls-75{fill:#c3c0c0;}.cls-76{fill:#c4c1c1;}.cls-77{fill:#c5c2c1;}.cls-78{fill:#c6c3c2;}.cls-79{fill:#c7c4c3;}.cls-80{fill:#c8c5c3;}.cls-81{fill:#c9c6c4;}.cls-82{fill:#cac6c4;}.cls-83{fill:#cbc7c5;}.cls-84{fill:#ccc8c6;}.cls-85{fill:#cdc9c6;}.cls-86{fill:#cecac7;}.cls-87{font-size:17.61px;font-family:Acrom-Bold, Acrom;font-weight:700;}</style><radialGradient id="radial-gradient" cx="60.05" cy="60.05" r="60.05" gradientUnits="userSpaceOnUse"><stop offset="0" stop-color="#e9e8e8"/><stop offset="0.49" stop-color="#e8e8e7"/><stop offset="0.77" stop-color="#dfdfde"/><stop offset="0.92" stop-color="#cfd4d8"/></radialGradient><radialGradient id="radial-gradient-2" cx="70.24" cy="67.75" r="79.69" gradientTransform="translate(105.7 -13.99) rotate(88.34)" xlink:href="#radial-gradient"/><linearGradient id="linear-gradient" x1="60.05" y1="24" x2="60.74" y2="-11.92" gradientTransform="translate(82.48 -36.54) rotate(88.34)" gradientUnits="userSpaceOnUse"><stop offset="0" stop-color="#eaeae9"/><stop offset="1" stop-color="#fff"/></linearGradient><clipPath id="clip-path"><path class="cls-1" d="M70.12,76.13a78.4,78.4,0,0,1-16.73,7.58c3.14,1.54,3.71,1.78,8.11,3.65C49.22,101.71,35.33,109,23.42,108.27a54.44,54.44,0,0,0,13.13,7.31c9.17.16,22.72-3.4,38.28-19.61,1.57,1.81,1.57,1.81,3.34,3.76a67.72,67.72,0,0,0,4.75-15.34,79.66,79.66,0,0,0,1.16-19A79,79,0,0,1,70.12,76.13Z"/></clipPath></defs><title>logo</title><g class="cls-2"><g id="Слой_1" data-name="Слой 1"><text class="cls-3" transform="translate(129.35 74.05)">P<tspan class="cls-4" x="31.49" y="0">R</tspan><tspan class="cls-5" x="67.19" y="0">O</tspan><tspan x="109.24" y="0">FG</tspan><tspan class="cls-6" x="176.17" y="0">L</tspan><tspan x="200.8" y="0">OBAL</tspan></text><path class="cls-7" d="M19.43,50.65C39.59,12.16,79.83-4.09,93.82,7.37L91.49,5.79,88.71,4.1C62.25-9.18,27.18,17.84,11.33,45.42c-13.59,25.72-14,49.14-1.14,62.65l1.28,1.2c5,4.18,5.15,4.34,8.3,6.4a65.8,65.8,0,0,0,11.34,5.79C2.89,108.65,9,71.23,19.43,50.65"/><circle class="cls-8" cx="60.05" cy="60.05" r="60.05"/><ellipse class="cls-9" cx="60.05" cy="47.41" rx="43.95" ry="53.43" transform="translate(10.91 106.06) rotate(-88.34)"/><ellipse class="cls-10" cx="60.05" cy="24.18" rx="22.04" ry="36.76" transform="translate(34.13 83.5) rotate(-88.34)"/><path class="cls-7" d="M95.62,38.82c.62-4.92,8.37-27.06-4.23-33.09C91.39,5.73,99.19,10.58,95.62,38.82Z"/><g class="cls-11"><g class="cls-12"><rect class="cls-13" x="23.42" y="65.43" width="61.04" height="50.31"/><path class="cls-13" d="M53.25,122.2c-13.18,0-25.1-3.74-33.74-9.78h3V65.2h-3a48.66,48.66,0,0,1,7.06-4.08v3.45H79.93V61.12A48.51,48.51,0,0,1,87,65.2H85.31v47.22H87C78.35,118.46,66.43,122.2,53.25,122.2Z"/><path class="cls-14" d="M53.25,121.89c-13.05,0-24.87-3.7-33.42-9.69h2.72V65.42H19.84a48,48,0,0,1,7-4v3.19H79.67V61.38a48,48,0,0,1,7,4H85.31V112.2h1.35C78.12,118.18,66.3,121.89,53.25,121.89Z"/><path class="cls-15" d="M53.25,121.57c-12.93,0-24.63-3.67-33.1-9.59h2.4V65.64h-2.4a51.48,51.48,0,0,1,14.88-7v5.94H71.47V58.62a51.43,51.43,0,0,1,14.88,7h-1V112h1C77.88,117.91,66.18,121.57,53.25,121.57Z"/><path class="cls-16" d="M53.25,121.26c-12.8,0-24.39-3.63-32.78-9.5h2.08V65.86H20.47a51,51,0,0,1,14.74-7v5.66H71.3V58.91a51,51,0,0,1,14.74,7h-.72v45.89H86C77.65,117.63,66.05,121.26,53.25,121.26Z"/><path class="cls-17" d="M53.25,120.94c-12.68,0-24.16-3.6-32.46-9.41h1.76V66.09H20.79A50.48,50.48,0,0,1,35.38,59.2v5.37H71.12V59.2a50.43,50.43,0,0,1,14.59,6.89h-.4v45.44h.4C77.41,117.35,65.93,120.94,53.25,120.94Z"/><path class="cls-18" d="M53.25,120.63c-12.55,0-23.92-3.56-32.15-9.32h1.45v-45H21.11a49.92,49.92,0,0,1,14.45-6.82v5.07H70.95V59.49A49.92,49.92,0,0,1,85.4,66.31h-.08v45h.08C77.17,117.06,65.81,120.63,53.25,120.63Z"/><path class="cls-19" d="M53.25,120.31c-12.43,0-23.69-3.52-31.83-9.23h1.13V66.53H21.43a49.47,49.47,0,0,1,14.31-6.75v4.79h35V59.78a49.46,49.46,0,0,1,14.31,6.75,37.78,37.78,0,0,1,5.5,4.66H85.31v35.23h5.26a37.75,37.75,0,0,1-5.5,4.66C76.93,116.79,65.68,120.31,53.25,120.31Z"/><path class="cls-20" d="M53.25,120c-12.31,0-23.45-3.49-31.51-9.13h.81V66.75h-.81a49.08,49.08,0,0,1,14.16-6.68v4.5H70.6v-4.5a49.08,49.08,0,0,1,14.16,6.68,37.18,37.18,0,0,1,5.44,4.62H85.31v34.88H90.2a37.17,37.17,0,0,1-5.44,4.62C76.7,116.51,65.56,120,53.25,120Z"/><path class="cls-21" d="M53.25,119.69c-12.18,0-23.21-3.46-31.19-9h.49V67h-.49a48.54,48.54,0,0,1,14-6.62v4.21H70.42V60.36a48.51,48.51,0,0,1,14,6.62,36.6,36.6,0,0,1,5.39,4.57H85.31v34.53h4.52a36.62,36.62,0,0,1-5.39,4.57C76.46,116.23,65.43,119.69,53.25,119.69Z"/><path class="cls-22" d="M53.25,119.37c-12.06,0-23-3.42-30.88-9h.18V67.2h-.18a48,48,0,0,1,13.88-6.55v3.92h34V60.65A47.92,47.92,0,0,1,84.12,67.2a36.24,36.24,0,0,1,5.33,4.52H85.31v34.17h4.14a36.26,36.26,0,0,1-5.33,4.52C76.22,115.95,65.31,119.37,53.25,119.37Z"/><path class="cls-23" d="M53.25,119.05c-11.93,0-22.74-3.38-30.56-8.86a36.09,36.09,0,0,1-5.28-4.48h5.14V71.9H17.42a36.12,36.12,0,0,1,5.28-4.48c7.82-5.47,18.62-8.86,30.56-8.86S76,61.95,83.81,67.42a35.86,35.86,0,0,1,5.28,4.48H85.31v33.82h3.77a35.83,35.83,0,0,1-5.28,4.48C76,115.67,65.18,119.05,53.25,119.05Z"/><path class="cls-24" d="M53.25,118.74c-11.81,0-22.5-3.35-30.24-8.76a35.53,35.53,0,0,1-5.22-4.43h4.76V72.07H17.79A35.59,35.59,0,0,1,23,67.65c7.74-5.42,18.43-8.76,30.24-8.76s22.5,3.35,30.23,8.76a35.59,35.59,0,0,1,5.22,4.43h-3.4v33.47h3.4A35.53,35.53,0,0,1,83.49,110C75.75,115.39,65.06,118.74,53.25,118.74Z"/><path class="cls-25" d="M53.25,118.43c-11.69,0-22.26-3.32-29.92-8.67a35.41,35.41,0,0,1-5.17-4.39h4.39V72.25H18.17a35.38,35.38,0,0,1,5.17-4.39c7.66-5.36,18.23-8.67,29.92-8.67s22.26,3.32,29.92,8.67a35.38,35.38,0,0,1,5.17,4.39h-3v33.11h3a35.41,35.41,0,0,1-5.17,4.39C75.51,115.11,64.94,118.43,53.25,118.43Z"/><path class="cls-26" d="M53.25,118.11c-11.56,0-22-3.28-29.6-8.58a34.85,34.85,0,0,1-5.11-4.33h4V72.43h-4a34.79,34.79,0,0,1,5.11-4.33c7.58-5.3,18-8.58,29.6-8.58s22,3.28,29.6,8.58A34.63,34.63,0,0,1,88,72.43H85.31v32.77H88a34.7,34.7,0,0,1-5.11,4.33C75.28,114.83,64.81,118.11,53.25,118.11Z"/><path class="cls-26" d="M53.25,117.8c-11.44,0-21.79-3.25-29.28-8.49A34.47,34.47,0,0,1,18.91,105h3.64V72.6H18.91A34.44,34.44,0,0,1,24,68.31c7.49-5.25,17.84-8.49,29.28-8.49S75,63.07,82.54,68.31a34.57,34.57,0,0,1,5.05,4.29H85.31V105h2.28a34.6,34.6,0,0,1-5.05,4.29C75,114.55,64.69,117.8,53.25,117.8Z"/><path class="cls-27" d="M53.25,117.19c-11.2,0-21.33-3.18-28.67-8.31a34.14,34.14,0,0,1-5-4.2h2.92V72.94H19.64a34.14,34.14,0,0,1,5-4.2c7.34-5.13,17.47-8.31,28.67-8.31s21.33,3.18,28.67,8.31a30.42,30.42,0,0,1,8.69,9H85.31V99.86h5.29a30.41,30.41,0,0,1-8.69,9C74.58,114,64.45,117.19,53.25,117.19Z"/><path class="cls-28" d="M53.25,116.57c-11,0-20.87-3.11-28.05-8.13a29.72,29.72,0,0,1-8.5-8.82h5.85V78H16.71a29.72,29.72,0,0,1,8.5-8.82c7.18-5,17.1-8.13,28.05-8.13s20.87,3.11,28,8.13A29.79,29.79,0,0,1,89.8,78H85.31V99.62H89.8a29.79,29.79,0,0,1-8.5,8.82C74.12,113.47,64.21,116.57,53.25,116.57Z"/><path class="cls-29" d="M53.25,116c-10.71,0-20.41-3-27.43-8a29,29,0,0,1-8.31-8.63h5V78.24h-5a29,29,0,0,1,8.31-8.63c7-4.91,16.72-8,27.43-8s20.41,3,27.43,8A29.06,29.06,0,0,1,89,78.24H85.31V99.38H89A29.06,29.06,0,0,1,80.68,108C73.66,112.92,64,116,53.25,116Z"/><path class="cls-30" d="M53.25,115.35c-10.47,0-20-3-26.81-7.78a28.43,28.43,0,0,1-8.13-8.43h4.25V78.48H18.31A28.43,28.43,0,0,1,26.44,70c6.86-4.81,16.34-7.78,26.81-7.78,20.94,0,37.92,11.88,37.92,26.54S74.19,115.35,53.25,115.35Z"/><path class="cls-31" d="M53.25,114.74c-10.23,0-19.49-2.9-26.2-7.59a27.75,27.75,0,0,1-7.94-8.24h3.44V78.72H19.12a27.75,27.75,0,0,1,7.94-8.24c6.7-4.69,16-7.59,26.2-7.59,20.46,0,37,11.61,37,25.93S73.71,114.74,53.25,114.74Z"/><ellipse class="cls-31" cx="53.25" cy="88.81" rx="36.17" ry="25.32"/><ellipse class="cls-32" cx="53.25" cy="88.81" rx="35.91" ry="25.13"/><ellipse class="cls-33" cx="53.25" cy="88.81" rx="35.65" ry="24.95"/><ellipse class="cls-34" cx="53.25" cy="88.81" rx="35.38" ry="24.77"/><ellipse class="cls-35" cx="53.25" cy="88.81" rx="35.12" ry="24.58"/><ellipse class="cls-36" cx="53.25" cy="88.81" rx="34.86" ry="24.4"/><ellipse class="cls-37" cx="53.25" cy="88.81" rx="34.6" ry="24.22"/><ellipse class="cls-38" cx="53.25" cy="88.81" rx="34.33" ry="24.03"/><ellipse class="cls-39" cx="53.25" cy="88.81" rx="34.07" ry="23.85"/><ellipse class="cls-40" cx="53.25" cy="88.81" rx="33.81" ry="23.66"/><ellipse class="cls-41" cx="53.25" cy="88.81" rx="33.55" ry="23.48"/><ellipse class="cls-42" cx="53.25" cy="88.81" rx="33.28" ry="23.3"/><ellipse class="cls-43" cx="53.25" cy="88.81" rx="33.02" ry="23.11"/><ellipse class="cls-44" cx="53.25" cy="88.81" rx="32.76" ry="22.93"/><ellipse class="cls-45" cx="53.25" cy="88.81" rx="32.5" ry="22.75"/><ellipse class="cls-46" cx="53.25" cy="88.81" rx="32.24" ry="22.56"/><ellipse class="cls-47" cx="53.25" cy="88.81" rx="31.97" ry="22.38"/><ellipse class="cls-48" cx="53.25" cy="88.81" rx="31.71" ry="22.2"/><ellipse class="cls-49" cx="53.25" cy="88.81" rx="31.45" ry="22.01"/><ellipse class="cls-50" cx="53.25" cy="88.81" rx="31.19" ry="21.83"/><ellipse class="cls-51" cx="53.25" cy="88.81" rx="30.92" ry="21.65"/><ellipse class="cls-52" cx="53.25" cy="88.81" rx="30.66" ry="21.46"/><ellipse class="cls-53" cx="53.25" cy="88.81" rx="30.4" ry="21.28"/><ellipse class="cls-54" cx="53.25" cy="88.81" rx="30.14" ry="21.09"/><ellipse class="cls-55" cx="53.25" cy="88.81" rx="29.87" ry="20.91"/><ellipse class="cls-56" cx="53.25" cy="88.81" rx="29.61" ry="20.73"/><ellipse class="cls-57" cx="53.25" cy="88.81" rx="29.35" ry="20.54"/><ellipse class="cls-58" cx="53.25" cy="88.81" rx="29.09" ry="20.36"/><ellipse class="cls-59" cx="53.25" cy="88.81" rx="28.83" ry="20.18"/><ellipse class="cls-60" cx="53.25" cy="88.81" rx="28.56" ry="19.99"/><ellipse class="cls-61" cx="53.25" cy="88.81" rx="28.3" ry="19.81"/><ellipse class="cls-62" cx="53.25" cy="88.81" rx="28.04" ry="19.63"/><ellipse class="cls-63" cx="53.25" cy="88.81" rx="27.77" ry="19.44"/><ellipse class="cls-63" cx="53.25" cy="88.81" rx="27.51" ry="19.26"/><ellipse class="cls-62" cx="53.25" cy="88.81" rx="26.92" ry="18.84"/><ellipse class="cls-61" cx="53.25" cy="88.81" rx="26.32" ry="18.42"/><ellipse class="cls-60" cx="53.25" cy="88.81" rx="25.73" ry="18.01"/><ellipse class="cls-59" cx="53.25" cy="88.81" rx="25.13" ry="17.59"/><ellipse class="cls-64" cx="53.25" cy="88.81" rx="24.54" ry="17.18"/><ellipse class="cls-57" cx="53.25" cy="88.81" rx="23.94" ry="16.76"/><ellipse class="cls-65" cx="53.25" cy="88.81" rx="23.35" ry="16.34"/><ellipse class="cls-66" cx="53.25" cy="88.81" rx="22.75" ry="15.93"/><ellipse class="cls-54" cx="53.25" cy="88.81" rx="22.16" ry="15.51"/><ellipse class="cls-67" cx="53.25" cy="88.81" rx="21.56" ry="15.09"/><ellipse class="cls-68" cx="53.25" cy="88.81" rx="20.97" ry="14.68"/><ellipse class="cls-51" cx="53.25" cy="88.81" rx="20.37" ry="14.26"/><ellipse class="cls-69" cx="53.25" cy="88.81" rx="19.78" ry="13.85"/><ellipse class="cls-70" cx="53.25" cy="88.81" rx="19.18" ry="13.43"/><ellipse class="cls-71" cx="53.25" cy="88.81" rx="18.59" ry="13.01"/><ellipse class="cls-72" cx="53.25" cy="88.81" rx="17.99" ry="12.6"/><ellipse class="cls-73" cx="53.25" cy="88.81" rx="17.4" ry="12.18"/><ellipse class="cls-74" cx="53.25" cy="88.81" rx="16.8" ry="11.76"/><ellipse class="cls-75" cx="53.25" cy="88.81" rx="16.21" ry="11.35"/><ellipse class="cls-76" cx="53.25" cy="88.81" rx="15.61" ry="10.93"/><ellipse class="cls-77" cx="53.25" cy="88.81" rx="15.02" ry="10.52"/><ellipse class="cls-78" cx="53.25" cy="88.81" rx="14.42" ry="10.1"/><ellipse class="cls-79" cx="53.25" cy="88.81" rx="13.83" ry="9.68"/><ellipse class="cls-80" cx="53.25" cy="88.81" rx="13.24" ry="9.26"/><ellipse class="cls-81" cx="53.25" cy="88.81" rx="12.64" ry="8.85"/><ellipse class="cls-82" cx="53.25" cy="88.81" rx="12.05" ry="8.43"/><ellipse class="cls-83" cx="53.25" cy="88.81" rx="11.45" ry="8.01"/><ellipse class="cls-84" cx="53.25" cy="88.81" rx="10.86" ry="7.6"/><ellipse class="cls-85" cx="53.25" cy="88.81" rx="10.26" ry="7.18"/><ellipse class="cls-86" cx="53.25" cy="88.81" rx="9.67" ry="6.77"/></g></g><path class="cls-7" d="M96.47,87a79.07,79.07,0,0,1-5.54,17.91c-2.07-2.27-2.07-2.27-3.9-4.39-26.43,27.53-47.89,23.81-55.9,20.94a65.83,65.83,0,0,1-11.34-5.79c-5.33-3.75-5.54-3.89-8.3-6.4l-1.28-1.2c15.93,13.66,40.55,6.59,61.26-17.6C66.31,88.28,65.65,88,62,86.21a91.66,91.66,0,0,0,19.54-8.86,92.42,92.42,0,0,0,16.3-12.5A93.1,93.1,0,0,1,96.47,87"/><text class="cls-87" transform="translate(136.49 91.79)">веб студия</text></g></g></svg>