<svg width="453" height="114" viewBox="0 0 453 114" fill="none" xmlns="http://www.w3.org/2000/svg">
<rect x="3" y="3" width="114" height="108" fill="#F1EC40" stroke="#121212" stroke-width="6"/>
<path d="M55.4629 67V90H42.2559V24.5938H64.5371C71.0059 24.5938 76.1569 26.6003 79.9902 30.6133C83.8535 34.6263 85.7852 39.8372 85.7852 46.2461C85.7852 52.6549 83.8835 57.7161 80.0801 61.4297C76.2767 65.1432 71.0059 67 64.2676 67H55.4629ZM55.4629 55.9941H64.5371C67.0527 55.9941 68.9993 55.1706 70.377 53.5234C71.7546 51.8763 72.4434 49.4805 72.4434 46.3359C72.4434 43.0716 71.7396 40.4811 70.332 38.5645C68.9245 36.6178 67.0378 35.6296 64.6719 35.5996H55.4629V55.9941Z" fill="black"/>
<path d="M178.117 37.8242C178.117 39.3307 177.931 40.6764 177.559 41.8613C177.186 43.0462 176.678 44.0957 176.035 45.0098C175.409 45.9069 174.681 46.6771 173.852 47.3203C173.022 47.9635 172.15 48.4883 171.236 48.8945C170.339 49.3008 169.425 49.597 168.494 49.7832C167.58 49.9694 166.717 50.0625 165.904 50.0625H150.975V43.4609H165.904C166.751 43.3932 167.512 43.224 168.189 42.9531C168.883 42.6654 169.476 42.2845 169.967 41.8105C170.458 41.3366 170.839 40.7695 171.109 40.1094C171.38 39.4323 171.516 38.6706 171.516 37.8242V34.8281C171.431 33.9987 171.253 33.237 170.982 32.543C170.712 31.849 170.339 31.2565 169.865 30.7656C169.408 30.2747 168.85 29.8939 168.189 29.623C167.529 29.3353 166.768 29.1914 165.904 29.1914H151.025C150.145 29.1914 149.477 29.4199 149.02 29.877C148.562 30.334 148.334 30.9941 148.334 31.8574V59H141.732V31.8574C141.732 30.1647 142.037 28.7259 142.646 27.541C143.273 26.3561 144.043 25.3997 144.957 24.6719C145.888 23.944 146.895 23.4193 147.979 23.0977C149.062 22.7591 150.061 22.5898 150.975 22.5898H165.904C167.394 22.5898 168.731 22.7845 169.916 23.1738C171.101 23.5462 172.142 24.054 173.039 24.6973C173.953 25.3236 174.723 26.0514 175.35 26.8809C175.993 27.7103 176.518 28.582 176.924 29.4961C177.347 30.3932 177.652 31.3073 177.838 32.2383C178.024 33.1523 178.117 34.0156 178.117 34.8281V37.8242ZM206.91 38.1543H192.057C191.16 38.1543 190.482 38.3828 190.025 38.8398C189.568 39.2799 189.34 39.9316 189.34 40.7949V59H182.738V40.7949C182.738 39.6608 182.882 38.6452 183.17 37.748C183.458 36.8509 183.839 36.0638 184.312 35.3867C184.803 34.6927 185.362 34.1087 185.988 33.6348C186.615 33.1439 187.266 32.7461 187.943 32.4414C188.637 32.1367 189.331 31.9167 190.025 31.7812C190.736 31.6289 191.396 31.5527 192.006 31.5527H206.91V38.1543ZM241.035 49.7324C241.035 50.8665 240.891 51.8906 240.604 52.8047C240.316 53.7018 239.935 54.4974 239.461 55.1914C238.987 55.8685 238.437 56.4525 237.811 56.9434C237.184 57.4173 236.524 57.8066 235.83 58.1113C235.153 58.416 234.459 58.6445 233.748 58.7969C233.054 58.9323 232.394 59 231.768 59H219.859C218.945 59 217.947 58.8392 216.863 58.5176C215.78 58.196 214.773 57.6712 213.842 56.9434C212.928 56.1986 212.158 55.2422 211.531 54.0742C210.922 52.8893 210.617 51.4421 210.617 49.7324V40.7949C210.617 39.1022 210.922 37.6719 211.531 36.5039C212.158 35.319 212.928 34.3626 213.842 33.6348C214.773 32.89 215.78 32.3568 216.863 32.0352C217.947 31.7135 218.945 31.5527 219.859 31.5527H231.768C233.46 31.5527 234.899 31.8574 236.084 32.4668C237.269 33.0762 238.225 33.8464 238.953 34.7773C239.681 35.6914 240.206 36.6901 240.527 37.7734C240.866 38.8568 241.035 39.8639 241.035 40.7949V49.7324ZM234.434 40.8457C234.434 39.9316 234.205 39.2546 233.748 38.8145C233.291 38.3743 232.631 38.1543 231.768 38.1543H219.91C219.03 38.1543 218.361 38.3828 217.904 38.8398C217.447 39.2799 217.219 39.9316 217.219 40.7949V49.7324C217.219 50.5957 217.447 51.2559 217.904 51.7129C218.361 52.1699 219.03 52.3984 219.91 52.3984H231.768C232.665 52.3984 233.333 52.1699 233.773 51.7129C234.214 51.2559 234.434 50.5957 234.434 49.7324V40.8457ZM270.971 38.1543H256.041V31.5527H270.971V38.1543ZM270.971 26.2461H256.092C255.195 26.2461 254.518 26.4746 254.061 26.9316C253.604 27.3717 253.375 28.0234 253.375 28.8867V59H246.773V28.8867C246.773 27.7526 246.917 26.737 247.205 25.8398C247.493 24.9427 247.874 24.1556 248.348 23.4785C248.839 22.7845 249.397 22.2005 250.023 21.7266C250.65 21.2357 251.301 20.8379 251.979 20.5332C252.673 20.2285 253.367 20.0085 254.061 19.873C254.755 19.7207 255.415 19.6445 256.041 19.6445H270.971V26.2461ZM311.977 55.6738C311.977 56.1478 311.892 56.5879 311.723 56.9941C311.553 57.4004 311.316 57.7559 311.012 58.0605C310.724 58.3483 310.377 58.5768 309.971 58.7461C309.564 58.9154 309.124 59 308.65 59H284.834C284.225 59 283.564 58.9323 282.854 58.7969C282.16 58.6445 281.465 58.416 280.771 58.1113C280.094 57.8066 279.443 57.4173 278.816 56.9434C278.19 56.4525 277.632 55.8685 277.141 55.1914C276.667 54.4974 276.286 53.7018 275.998 52.8047C275.71 51.8906 275.566 50.8665 275.566 49.7324V31.8574C275.566 31.248 275.634 30.5964 275.77 29.9023C275.922 29.1914 276.15 28.4974 276.455 27.8203C276.76 27.1263 277.158 26.4661 277.648 25.8398C278.139 25.2135 278.723 24.6634 279.4 24.1895C280.094 23.6986 280.89 23.3092 281.787 23.0215C282.684 22.7337 283.7 22.5898 284.834 22.5898H311.672V29.1914H284.834C283.971 29.1914 283.311 29.4199 282.854 29.877C282.396 30.334 282.168 31.0111 282.168 31.9082V49.7324C282.168 50.5788 282.396 51.2389 282.854 51.7129C283.327 52.1699 283.988 52.3984 284.834 52.3984H305.375V44.1211H287.805V37.4688H308.65C309.124 37.4688 309.564 37.5618 309.971 37.748C310.377 37.9173 310.724 38.1543 311.012 38.459C311.316 38.7637 311.553 39.1191 311.723 39.5254C311.892 39.9147 311.977 40.3379 311.977 40.7949V55.6738ZM330.182 59H327.236C326.288 59 325.273 58.8392 324.189 58.5176C323.123 58.196 322.124 57.6712 321.193 56.9434C320.262 56.1986 319.492 55.2422 318.883 54.0742C318.273 52.8893 317.969 51.4421 317.969 49.7324V19.9492H324.57V49.7324C324.57 50.5449 324.824 51.1966 325.332 51.6875C325.84 52.1615 326.475 52.3984 327.236 52.3984H330.182V59ZM364.281 49.7324C364.281 50.8665 364.137 51.8906 363.85 52.8047C363.562 53.7018 363.181 54.4974 362.707 55.1914C362.233 55.8685 361.683 56.4525 361.057 56.9434C360.43 57.4173 359.77 57.8066 359.076 58.1113C358.399 58.416 357.705 58.6445 356.994 58.7969C356.3 58.9323 355.64 59 355.014 59H343.105C342.191 59 341.193 58.8392 340.109 58.5176C339.026 58.196 338.019 57.6712 337.088 56.9434C336.174 56.1986 335.404 55.2422 334.777 54.0742C334.168 52.8893 333.863 51.4421 333.863 49.7324V40.7949C333.863 39.1022 334.168 37.6719 334.777 36.5039C335.404 35.319 336.174 34.3626 337.088 33.6348C338.019 32.89 339.026 32.3568 340.109 32.0352C341.193 31.7135 342.191 31.5527 343.105 31.5527H355.014C356.706 31.5527 358.145 31.8574 359.33 32.4668C360.515 33.0762 361.471 33.8464 362.199 34.7773C362.927 35.6914 363.452 36.6901 363.773 37.7734C364.112 38.8568 364.281 39.8639 364.281 40.7949V49.7324ZM357.68 40.8457C357.68 39.9316 357.451 39.2546 356.994 38.8145C356.537 38.3743 355.877 38.1543 355.014 38.1543H343.156C342.276 38.1543 341.607 38.3828 341.15 38.8398C340.693 39.2799 340.465 39.9316 340.465 40.7949V49.7324C340.465 50.5957 340.693 51.2559 341.15 51.7129C341.607 52.1699 342.276 52.3984 343.156 52.3984H355.014C355.911 52.3984 356.579 52.1699 357.02 51.7129C357.46 51.2559 357.68 50.5957 357.68 49.7324V40.8457ZM400.184 49.7324C400.184 50.3587 400.107 51.0189 399.955 51.7129C399.82 52.4069 399.6 53.1009 399.295 53.7949C398.99 54.472 398.592 55.1237 398.102 55.75C397.628 56.3763 397.044 56.9349 396.35 57.4258C395.673 57.8997 394.885 58.2806 393.988 58.5684C393.091 58.8561 392.076 59 390.941 59H379.033C378.407 59 377.747 58.9323 377.053 58.7969C376.359 58.6445 375.665 58.416 374.971 58.1113C374.294 57.8066 373.642 57.4173 373.016 56.9434C372.389 56.4525 371.831 55.8685 371.34 55.1914C370.866 54.4974 370.485 53.7018 370.197 52.8047C369.91 51.8906 369.766 50.8665 369.766 49.7324V19.9492H376.367V49.7324C376.367 50.5449 376.621 51.1966 377.129 51.6875C377.637 52.1615 378.271 52.3984 379.033 52.3984H390.941C391.771 52.3984 392.414 52.153 392.871 51.6621C393.345 51.1712 393.582 50.528 393.582 49.7324V40.7949C393.582 39.9655 393.337 39.3223 392.846 38.8652C392.355 38.3913 391.72 38.1543 390.941 38.1543H379.033V31.5527H390.941C391.568 31.5527 392.228 31.6289 392.922 31.7812C393.616 31.9167 394.301 32.1367 394.979 32.4414C395.673 32.7461 396.333 33.1439 396.959 33.6348C397.585 34.1087 398.135 34.6927 398.609 35.3867C399.083 36.0638 399.464 36.8509 399.752 37.748C400.04 38.6452 400.184 39.6608 400.184 40.7949V49.7324ZM434.156 49.9102C434.156 50.8242 433.995 51.8145 433.674 52.8809C433.352 53.9303 432.827 54.9121 432.1 55.8262C431.389 56.7233 430.449 57.4766 429.281 58.0859C428.13 58.6953 426.725 59 425.066 59H413.158C412.244 59 411.254 58.8392 410.188 58.5176C409.138 58.196 408.156 57.6797 407.242 56.9688C406.345 56.2409 405.592 55.3014 404.982 54.1504C404.373 52.9824 404.068 51.569 404.068 49.9102C404.068 48.9961 404.229 48.0059 404.551 46.9395C404.872 45.873 405.389 44.8913 406.1 43.9941C406.827 43.0801 407.767 42.3184 408.918 41.709C410.086 41.0996 411.499 40.7949 413.158 40.7949H425.066V47.0918H413.158C412.261 47.0918 411.567 47.3711 411.076 47.9297C410.585 48.4714 410.34 49.1484 410.34 49.9609C410.34 50.8242 410.619 51.5013 411.178 51.9922C411.753 52.4661 412.43 52.7031 413.209 52.7031H425.066C425.964 52.7031 426.658 52.4323 427.148 51.8906C427.639 51.349 427.885 50.6719 427.885 49.8594V40.6426C427.885 39.7793 427.614 39.0938 427.072 38.5859C426.548 38.0781 425.879 37.8242 425.066 37.8242H410.568V31.5527H425.066C425.98 31.5527 426.962 31.7135 428.012 32.0352C429.078 32.3568 430.06 32.8815 430.957 33.6094C431.871 34.3203 432.633 35.2598 433.242 36.4277C433.852 37.5788 434.156 38.9837 434.156 40.6426V49.9102ZM451.854 59H448.908C447.96 59 446.945 58.8392 445.861 58.5176C444.795 58.196 443.796 57.6712 442.865 56.9434C441.934 56.1986 441.164 55.2422 440.555 54.0742C439.945 52.8893 439.641 51.4421 439.641 49.7324V19.9492H446.242V49.7324C446.242 50.5449 446.496 51.1966 447.004 51.6875C447.512 52.1615 448.146 52.3984 448.908 52.3984H451.854V59Z" fill="#121212"/>
<path d="M148.432 89H146.782V74.436H148.432V89ZM162.343 76.02H157.261V89H155.611V76.02H150.529V74.436H162.343V76.02ZM173.856 87.68C174.56 87.68 175.183 87.482 175.726 87.086C176.268 86.69 176.664 86.1767 176.914 85.546H178.696C178.358 86.6313 177.742 87.504 176.848 88.164C175.909 88.8387 174.794 89.176 173.504 89.176C171.89 89.176 170.578 88.626 169.566 87.526C168.583 86.4553 168.092 85.1133 168.092 83.5C168.092 81.8867 168.583 80.5447 169.566 79.474C170.578 78.374 171.89 77.824 173.504 77.824C174.794 77.824 175.909 78.1613 176.848 78.836C177.742 79.496 178.358 80.3687 178.696 81.454H176.914C176.664 80.8233 176.268 80.31 175.726 79.914C175.183 79.518 174.56 79.32 173.856 79.32C173.152 79.32 172.55 79.43 172.052 79.65C171.568 79.87 171.157 80.1707 170.82 80.552C170.101 81.344 169.742 82.3267 169.742 83.5C169.742 84.6733 170.101 85.656 170.82 86.448C171.553 87.2693 172.565 87.68 173.856 87.68ZM185.515 77.824C187.157 77.824 188.492 78.374 189.519 79.474C190.487 80.53 190.971 81.872 190.971 83.5C190.971 85.128 190.487 86.47 189.519 87.526C188.492 88.626 187.157 89.176 185.515 89.176C183.872 89.176 182.537 88.626 181.511 87.526C180.543 86.47 180.059 85.128 180.059 83.5C180.059 81.872 180.543 80.53 181.511 79.474C182.537 78.374 183.872 77.824 185.515 77.824ZM185.515 87.68C186.703 87.68 187.641 87.2693 188.331 86.448C188.991 85.6707 189.321 84.688 189.321 83.5C189.321 82.312 188.991 81.3293 188.331 80.552C187.641 79.7307 186.703 79.32 185.515 79.32C184.327 79.32 183.388 79.7307 182.699 80.552C182.039 81.3293 181.709 82.312 181.709 83.5C181.709 84.688 182.039 85.6707 182.699 86.448C183.388 87.2693 184.327 87.68 185.515 87.68ZM194.809 79.672C195.542 78.44 196.657 77.824 198.153 77.824C198.886 77.824 199.561 78.022 200.177 78.418C200.807 78.7993 201.299 79.342 201.651 80.046C202.149 79.122 202.927 78.462 203.983 78.066C204.408 77.9047 204.885 77.824 205.413 77.824C205.955 77.824 206.469 77.934 206.953 78.154C207.451 78.3593 207.891 78.66 208.273 79.056C209.094 79.936 209.505 81.036 209.505 82.356V89H207.855V82.4C207.855 81.4907 207.598 80.7427 207.085 80.156C206.571 79.5987 205.919 79.32 205.127 79.32C204.291 79.32 203.594 79.5913 203.037 80.134C202.45 80.6913 202.157 81.454 202.157 82.422V89H200.507V82.4C200.507 81.4907 200.25 80.7427 199.737 80.156C199.223 79.5987 198.571 79.32 197.779 79.32C196.943 79.32 196.246 79.5913 195.689 80.134C195.102 80.6913 194.809 81.454 194.809 82.422V89H193.159V78H194.809V79.672ZM213.908 79.76C214.788 78.4693 216.101 77.824 217.846 77.824C219.43 77.824 220.713 78.374 221.696 79.474C222.679 80.5593 223.17 81.9013 223.17 83.5C223.17 85.0987 222.679 86.4407 221.696 87.526C220.713 88.626 219.393 89.176 217.736 89.176C216.079 89.176 214.803 88.5233 213.908 87.218V93.356H212.258V78H213.908V79.76ZM217.626 79.32C216.438 79.32 215.499 79.7307 214.81 80.552C214.15 81.3293 213.82 82.312 213.82 83.5C213.82 84.688 214.15 85.6707 214.81 86.448C215.499 87.2693 216.438 87.68 217.626 87.68C218.799 87.68 219.753 87.2693 220.486 86.448C221.175 85.6707 221.52 84.688 221.52 83.5C221.52 82.312 221.175 81.3293 220.486 80.552C219.753 79.7307 218.799 79.32 217.626 79.32ZM233.901 87.24C233.021 88.5307 231.708 89.176 229.963 89.176C228.379 89.176 227.088 88.626 226.091 87.526C225.123 86.4407 224.639 85.0987 224.639 83.5C224.639 81.9013 225.123 80.5593 226.091 79.474C227.088 78.374 228.415 77.824 230.073 77.824C231.73 77.824 233.006 78.4767 233.901 79.782V78H235.551V89H233.901V87.24ZM230.183 87.68C231.371 87.68 232.309 87.2693 232.999 86.448C233.659 85.6707 233.989 84.688 233.989 83.5C233.989 82.312 233.659 81.3293 232.999 80.552C232.309 79.7307 231.371 79.32 230.183 79.32C229.009 79.32 228.056 79.7307 227.323 80.552C226.633 81.3293 226.289 82.312 226.289 83.5C226.289 84.688 226.633 85.6707 227.323 86.448C228.056 87.2693 229.009 87.68 230.183 87.68ZM240.055 78V79.716C240.451 79.188 240.935 78.7407 241.507 78.374C242.079 78.0073 242.731 77.824 243.465 77.824C244.198 77.824 244.829 77.9267 245.357 78.132C245.885 78.3373 246.347 78.6453 246.743 79.056C247.652 79.9507 248.107 81.1313 248.107 82.598V89H246.457V82.642C246.457 81.63 246.171 80.8233 245.599 80.222C245.027 79.6207 244.286 79.32 243.377 79.32C242.453 79.32 241.668 79.628 241.023 80.244C240.377 80.8747 240.055 81.6813 240.055 82.664V89H238.405V78H240.055ZM253.512 93.356H251.73L253.732 88.846L249.244 78H251.07L254.612 87.02L258.22 78H260.024L253.512 93.356Z" fill="#595959"/>
</svg>
