<svg width="380" height="70" viewBox="0 0 380 70" fill="none" xmlns="http://www.w3.org/2000/svg">
<rect x="1" y="1" width="145" height="69" fill="#FCAF3B"/>
<path d="M23.8403 41.25V56H15.3706V14.0547H29.6597C33.8081 14.0547 37.1115 15.3415 39.5698 17.915C42.0474 20.4886 43.2861 23.8304 43.2861 27.9404C43.2861 32.0505 42.0666 35.2962 39.6274 37.6777C37.1883 40.0592 33.8081 41.25 29.4868 41.25H23.8403ZM23.8403 34.1919H29.6597C31.2729 34.1919 32.5213 33.6637 33.4048 32.6074C34.2882 31.5511 34.73 30.0146 34.73 27.998C34.73 25.9046 34.2786 24.2433 33.376 23.0142C32.4733 21.7658 31.2633 21.132 29.7461 21.1128H23.8403V34.1919ZM60.486 40.6738H56.28V56H47.8102V14.0547H61.3215C65.5659 14.0547 68.8405 15.159 71.1452 17.3677C73.4691 19.5571 74.631 22.6781 74.631 26.7305C74.631 32.3001 72.6048 36.1989 68.5524 38.4268L75.8986 55.5967V56H66.7951L60.486 40.6738ZM56.28 33.6157H61.091C62.7811 33.6157 64.0487 33.0588 64.8937 31.9448C65.7388 30.8117 66.1613 29.304 66.1613 27.4219C66.1613 23.2158 64.5192 21.1128 61.235 21.1128H56.28V33.6157ZM108.799 38.8013C108.799 44.4285 107.464 48.7979 104.795 51.9092C102.144 55.0205 98.4569 56.5762 93.7323 56.5762C89.0269 56.5762 85.3298 55.0397 82.641 51.9668C79.9522 48.8747 78.5886 44.5534 78.5502 39.0029V31.8296C78.5502 26.0679 79.885 21.5737 82.5546 18.3472C85.2241 15.1014 88.9309 13.4785 93.6747 13.4785C98.3417 13.4785 102.02 15.0726 104.708 18.2607C107.397 21.4297 108.761 25.8854 108.799 31.6279V38.8013ZM100.301 31.772C100.301 27.9884 99.7629 25.1748 98.6874 23.3311C97.6118 21.4873 95.9409 20.5654 93.6747 20.5654C91.4276 20.5654 89.7663 21.4585 88.6908 23.2446C87.6153 25.0116 87.0583 27.71 87.0199 31.3398V38.8013C87.0199 42.4696 87.5672 45.1776 88.662 46.9253C89.7567 48.6538 91.4468 49.5181 93.7323 49.5181C95.9409 49.5181 97.583 48.673 98.6586 46.9829C99.7341 45.2736 100.281 42.6328 100.301 39.0605V31.772ZM135.333 38.8877H122.168V56H113.698V14.0547H136.918V21.1128H122.168V31.8584H135.333V38.8877ZM185.056 51.2466C183.423 53.0135 181.416 54.3483 179.035 55.251C176.672 56.1344 174.079 56.5762 171.256 56.5762C166.436 56.5762 162.69 55.0877 160.021 52.1108C157.351 49.1147 155.978 44.7646 155.901 39.0605V31.5127C155.901 25.7318 157.159 21.2856 159.675 18.1743C162.21 15.0438 165.898 13.4785 170.738 13.4785C175.289 13.4785 178.718 14.6021 181.022 16.8491C183.346 19.0962 184.691 22.6204 185.056 27.4219H176.816C176.586 24.7523 176.029 22.9373 175.145 21.9771C174.262 20.9976 172.879 20.5078 170.997 20.5078C168.711 20.5078 167.05 21.3433 166.013 23.0142C164.976 24.6851 164.438 27.3451 164.4 30.9941V38.5996C164.4 42.4215 164.966 45.2064 166.099 46.9541C167.252 48.6826 169.134 49.5469 171.746 49.5469C173.417 49.5469 174.771 49.2108 175.808 48.5386L176.557 48.02V40.3281H170.622V33.9326H185.056V51.2466ZM204.827 48.9707H219.693V56H196.358V14.0547H204.827V48.9707ZM257.585 38.8013C257.585 44.4285 256.25 48.7979 253.581 51.9092C250.93 55.0205 247.243 56.5762 242.518 56.5762C237.813 56.5762 234.116 55.0397 231.427 51.9668C228.738 48.8747 227.375 44.5534 227.336 39.0029V31.8296C227.336 26.0679 228.671 21.5737 231.341 18.3472C234.01 15.1014 237.717 13.4785 242.461 13.4785C247.128 13.4785 250.806 15.0726 253.494 18.2607C256.183 21.4297 257.547 25.8854 257.585 31.6279V38.8013ZM249.087 31.772C249.087 27.9884 248.549 25.1748 247.473 23.3311C246.398 21.4873 244.727 20.5654 242.461 20.5654C240.214 20.5654 238.552 21.4585 237.477 23.2446C236.401 25.0116 235.844 27.71 235.806 31.3398V38.8013C235.806 42.4696 236.353 45.1776 237.448 46.9253C238.543 48.6538 240.233 49.5181 242.518 49.5181C244.727 49.5181 246.369 48.673 247.445 46.9829C248.52 45.2736 249.067 42.6328 249.087 39.0605V31.772ZM268.974 56V14.0547H281.938C286.317 14.0547 289.639 15.0342 291.905 16.9932C294.191 18.9329 295.334 21.785 295.334 25.5493C295.334 27.6812 294.863 29.5153 293.922 31.0518C292.981 32.5882 291.694 33.7118 290.062 34.4224C291.944 34.9601 293.394 36.0452 294.412 37.6777C295.43 39.291 295.939 41.2884 295.939 43.6699C295.939 47.7415 294.815 50.8145 292.568 52.8887C290.34 54.9629 287.104 56 282.86 56H268.974ZM277.444 37.7642V48.9707H282.86C284.377 48.9707 285.529 48.5002 286.317 47.5591C287.104 46.618 287.498 45.2832 287.498 43.5547C287.498 39.7904 286.134 37.8602 283.407 37.7642H277.444ZM277.444 31.5991H281.851C285.174 31.5991 286.835 29.8802 286.835 26.4424C286.835 24.541 286.451 23.1774 285.683 22.3516C284.915 21.5257 283.666 21.1128 281.938 21.1128H277.444V31.5991ZM327.436 47.415H315.883L313.636 56H304.677L317.785 14.0547H325.534L338.729 56H329.683L327.436 47.415ZM317.727 40.3569H325.563L321.645 25.4053L317.727 40.3569ZM356.455 48.9707H371.32V56H347.985V14.0547H356.455V48.9707Z" fill="#2B2B2B"/>
<rect x="0.5" y="0.5" width="379" height="69" stroke="#121212"/>
</svg>
