<svg width="380" height="70" viewBox="0 0 380 70" fill="none" xmlns="http://www.w3.org/2000/svg">
<rect x="1" y="1" width="145" height="69" fill="#FCAF3B"/>
<rect x="1" y="1" width="145" height="69" stroke="#121212"/>
<path d="M23.8403 41.25V56H15.3706V14.0547H29.6597C33.8081 14.0547 37.1115 15.3415 39.5698 17.915C42.0474 20.4886 43.2861 23.8304 43.2861 27.9404C43.2861 32.0505 42.0666 35.2962 39.6274 37.6777C37.1883 40.0592 33.8081 41.25 29.4868 41.25H23.8403ZM23.8403 34.1919H29.6597C31.2729 34.1919 32.5213 33.6637 33.4048 32.6074C34.2882 31.5511 34.73 30.0146 34.73 27.998C34.73 25.9046 34.2786 24.2433 33.376 23.0142C32.4733 21.7658 31.2633 21.132 29.7461 21.1128H23.8403V34.1919ZM60.486 40.6738H56.28V56H47.8102V14.0547H61.3215C65.5659 14.0547 68.8405 15.159 71.1452 17.3677C73.4691 19.5571 74.631 22.6781 74.631 26.7305C74.631 32.3001 72.6048 36.1989 68.5524 38.4268L75.8986 55.5967V56H66.7951L60.486 40.6738ZM56.28 33.6157H61.091C62.7811 33.6157 64.0487 33.0588 64.8937 31.9448C65.7388 30.8117 66.1613 29.304 66.1613 27.4219C66.1613 23.2158 64.5192 21.1128 61.235 21.1128H56.28V33.6157ZM108.799 38.8013C108.799 44.4285 107.464 48.7979 104.795 51.9092C102.144 55.0205 98.4569 56.5762 93.7323 56.5762C89.0269 56.5762 85.3298 55.0397 82.641 51.9668C79.9522 48.8747 78.5886 44.5534 78.5502 39.0029V31.8296C78.5502 26.0679 79.885 21.5737 82.5546 18.3472C85.2241 15.1014 88.9309 13.4785 93.6747 13.4785C98.3417 13.4785 102.02 15.0726 104.708 18.2607C107.397 21.4297 108.761 25.8854 108.799 31.6279V38.8013ZM100.301 31.772C100.301 27.9884 99.7629 25.1748 98.6874 23.3311C97.6118 21.4873 95.9409 20.5654 93.6747 20.5654C91.4276 20.5654 89.7663 21.4585 88.6908 23.2446C87.6153 25.0116 87.0583 27.71 87.0199 31.3398V38.8013C87.0199 42.4696 87.5672 45.1776 88.662 46.9253C89.7567 48.6538 91.4468 49.5181 93.7323 49.5181C95.9409 49.5181 97.583 48.673 98.6586 46.9829C99.7341 45.2736 100.281 42.6328 100.301 39.0605V31.772ZM135.333 38.8877H122.168V56H113.698V14.0547H136.918V21.1128H122.168V31.8584H135.333V38.8877ZM181.516 51.2466C179.883 53.0135 177.876 54.3483 175.495 55.251C173.132 56.1344 170.539 56.5762 167.716 56.5762C162.896 56.5762 159.15 55.0877 156.481 52.1108C153.811 49.1147 152.438 44.7646 152.361 39.0605V31.5127C152.361 25.7318 153.619 21.2856 156.135 18.1743C158.67 15.0438 162.358 13.4785 167.198 13.4785C171.749 13.4785 175.178 14.6021 177.482 16.8491C179.806 19.0962 181.151 22.6204 181.516 27.4219H173.276C173.046 24.7523 172.489 22.9373 171.605 21.9771C170.722 20.9976 169.339 20.5078 167.457 20.5078C165.171 20.5078 163.51 21.3433 162.473 23.0142C161.436 24.6851 160.898 27.3451 160.86 30.9941V38.5996C160.86 42.4215 161.426 45.2064 162.559 46.9541C163.712 48.6826 165.594 49.5469 168.206 49.5469C169.877 49.5469 171.231 49.2108 172.268 48.5386L173.017 48.02V40.3281H167.082V33.9326H181.516V51.2466ZM201.287 48.9707H216.153V56H192.818V14.0547H201.287V48.9707ZM254.045 38.8013C254.045 44.4285 252.71 48.7979 250.041 51.9092C247.39 55.0205 243.703 56.5762 238.978 56.5762C234.273 56.5762 230.576 55.0397 227.887 51.9668C225.198 48.8747 223.835 44.5534 223.796 39.0029V31.8296C223.796 26.0679 225.131 21.5737 227.801 18.3472C230.47 15.1014 234.177 13.4785 238.921 13.4785C243.588 13.4785 247.266 15.0726 249.954 18.2607C252.643 21.4297 254.007 25.8854 254.045 31.6279V38.8013ZM245.547 31.772C245.547 27.9884 245.009 25.1748 243.933 23.3311C242.858 21.4873 241.187 20.5654 238.921 20.5654C236.674 20.5654 235.012 21.4585 233.937 23.2446C232.861 25.0116 232.304 27.71 232.266 31.3398V38.8013C232.266 42.4696 232.813 45.1776 233.908 46.9253C235.003 48.6538 236.693 49.5181 238.978 49.5181C241.187 49.5181 242.829 48.673 243.905 46.9829C244.98 45.2736 245.527 42.6328 245.547 39.0605V31.772ZM265.434 56V14.0547H278.398C282.777 14.0547 286.099 15.0342 288.365 16.9932C290.651 18.9329 291.794 21.785 291.794 25.5493C291.794 27.6812 291.323 29.5153 290.382 31.0518C289.441 32.5882 288.154 33.7118 286.522 34.4224C288.404 34.9601 289.854 36.0452 290.872 37.6777C291.89 39.291 292.399 41.2884 292.399 43.6699C292.399 47.7415 291.275 50.8145 289.028 52.8887C286.8 54.9629 283.564 56 279.32 56H265.434ZM273.904 37.7642V48.9707H279.32C280.837 48.9707 281.989 48.5002 282.777 47.5591C283.564 46.618 283.958 45.2832 283.958 43.5547C283.958 39.7904 282.594 37.8602 279.867 37.7642H273.904ZM273.904 31.5991H278.311C281.634 31.5991 283.295 29.8802 283.295 26.4424C283.295 24.541 282.911 23.1774 282.143 22.3516C281.375 21.5257 280.126 21.1128 278.398 21.1128H273.904V31.5991ZM323.896 47.415H312.343L310.096 56H301.137L314.245 14.0547H321.994L335.189 56H326.143L323.896 47.415ZM314.187 40.3569H322.023L318.105 25.4053L314.187 40.3569ZM352.915 48.9707H367.78V56H344.445V14.0547H352.915V48.9707Z" fill="#2B2B2B"/>
<rect x="0.5" y="0.5" width="379" height="69" stroke="#121212"/>
</svg>
