<svg viewBox="0 0 370 83.52528655861816" height="83.52528655861816" width="370" style="width: 370px; height: 83.5253px; position: absolute; top: 50%; left: 50%; z-index: 0; cursor: pointer; transform: translate(-50%, -50%) scale(0.562162);"><defs id="SvgjsDefs1998"></defs><g id="SvgjsG1999" featurekey="symbolFeature-0" transform="matrix(1.3050826024784088,0,0,1.3050826024784088,-30.2541251454254,-23.491327532770235)" fill="#04bfbf"><g xmlns="http://www.w3.org/2000/svg" transform="translate(0,-952.36216)"><path d="m 50.196374,970.37485 a 1.5043353,1.4942442 0 0 0 -1.233658,0.6716 c -2.738176,3.9713 -11.417261,7.34737 -21.347025,7.40573 a 1.5043353,1.4942442 0 0 0 -0.0588,0 1.5043353,1.4942442 0 0 0 -0.1952,-0.0204 1.5043353,1.4942442 0 0 0 -1.479617,1.19072 c 0,0 -1.500798,6.74949 -2.252616,14.91315 -0.751859,8.16385 -0.906859,17.72395 2.393136,23.89635 2.472135,4.6239 8.321266,8.3404 13.542957,11.1693 4.829712,2.6165 8.813046,4.2 9.439845,4.4467 a 1.5043353,1.4942442 0 0 0 0.995518,0.3123 1.5043353,1.4942442 0 0 0 1.007238,-0.3201 1.5043353,1.4942442 0 0 0 0.006,0 c 0.652579,-0.2564 4.616113,-1.828 9.428125,-4.4349 5.221671,-2.8289 11.062982,-6.5454 13.535137,-11.1693 3.299995,-6.1724 3.144975,-15.7325 2.393116,-23.89635 -0.751858,-8.16366 -2.252576,-14.91315 -2.252576,-14.91315 a 1.5043353,1.4942442 0 0 0 -1.518677,-1.19072 1.5043353,1.4942442 0 0 0 -0.125,0 c -9.540984,-0.038 -17.922891,-3.23493 -20.847286,-7.09347 a 1.5043353,1.4942442 0 0 0 -1.432777,-0.98004 z m -0.0274,3.89236 c 4.193413,4.42323 12.24024,6.91019 21.225985,7.12867 0.301139,1.42257 1.346777,6.511 1.983236,13.42181 0.732479,7.95281 0.579679,17.28921 -2.057416,22.22151 -1.809177,3.3841 -7.288768,7.2212 -12.32098,9.9474 -4.555432,2.468 -8.257306,3.95 -8.998685,4.2436 -0.741419,-0.2937 -4.443253,-1.7756 -8.998705,-4.2436 -5.032212,-2.7262 -10.511763,-6.5633 -12.32098,-9.9474 -2.637095,-4.9323 -2.789815,-14.2687 -2.057416,-22.22151 0.636159,-6.90741 1.681357,-11.99164 1.983236,-13.41801 9.141745,-0.21772 17.311752,-2.70322 21.561725,-7.13247 z" style="color:;font-style:normal;font-variant:normal;font-weight:normal;font-stretch:normal;font-size:medium;line-height:normal;font-family:sans-serif;text-indent:0;text-align:start;text-decoration:none;text-decoration-line:none;text-decoration-style:solid;text-decoration-color:;letter-spacing:normal;word-spacing:normal;text-transform:none;direction:ltr;block-progression:tb;writing-mode:lr-tb;baseline-shift:baseline;text-anchor:start;white-space:normal;clip-rule:nonzero;display:inline;overflow:visible;visibility:visible;opacity:1;isolation:auto;mix-blend-mode:normal;color-interpolation:sRGB;color-interpolation-filters:linearRGB;solid-color:;solid-opacity:1;fill:#04bfbf;fill-opacity:1;fill-rule:nonzero;stroke:none;stroke-width:0.88166183;stroke-linecap:round;stroke-linejoin:round;stroke-miterlimit:4;stroke-dasharray:none;stroke-dashoffset:0;stroke-opacity:1;color-rendering:auto;image-rendering:auto;shape-rendering:auto;text-rendering:auto;enable-background:accumulate"></path><path style="color:;font-style:normal;font-variant:normal;font-weight:normal;font-stretch:normal;font-size:medium;line-height:normal;font-family:sans-serif;text-indent:0;text-align:start;text-decoration:none;text-decoration-line:none;text-decoration-style:solid;text-decoration-color:;letter-spacing:normal;word-spacing:normal;text-transform:none;direction:ltr;block-progression:tb;writing-mode:lr-tb;baseline-shift:baseline;text-anchor:start;white-space:normal;clip-rule:nonzero;display:inline;overflow:visible;visibility:visible;opacity:1;isolation:auto;mix-blend-mode:normal;color-interpolation:sRGB;color-interpolation-filters:linearRGB;solid-color:;solid-opacity:1;fill:#04bfbf;fill-opacity:1;fill-rule:nonzero;stroke:none;stroke-width:3.62480402;stroke-linecap:round;stroke-linejoin:round;stroke-miterlimit:4;stroke-dasharray:none;stroke-dashoffset:0;stroke-opacity:1;color-rendering:auto;image-rendering:auto;shape-rendering:auto;text-rendering:auto;enable-background:accumulate" d="m 43.208647,993.23169 a 1.5040573,1.496248 0 0 1 1.043719,2.57153 l -6.61075,6.55388 6.61075,6.5539 a 1.5040573,1.496248 0 1 1 -2.123097,2.1185 l -7.678767,-7.6131 a 1.5040573,1.496248 0 0 1 0,-2.1185 l 7.678767,-7.61475 a 1.5040573,1.496248 0 0 1 1.079378,-0.45146 z"></path><path d="m 56.812659,993.22983 a 1.5040573,1.496248 0 0 0 -1.043719,2.57153 l 6.61075,6.55384 -6.61075,6.5539 a 1.5040573,1.496248 0 1 0 2.123097,2.1185 l 7.678767,-7.6131 a 1.5040573,1.496248 0 0 0 0,-2.1185 l -7.678767,-7.61471 a 1.5040573,1.496248 0 0 0 -1.079378,-0.45146 z" style="color:;font-style:normal;font-variant:normal;font-weight:normal;font-stretch:normal;font-size:medium;line-height:normal;font-family:sans-serif;text-indent:0;text-align:start;text-decoration:none;text-decoration-line:none;text-decoration-style:solid;text-decoration-color:;letter-spacing:normal;word-spacing:normal;text-transform:none;direction:ltr;block-progression:tb;writing-mode:lr-tb;baseline-shift:baseline;text-anchor:start;white-space:normal;clip-rule:nonzero;display:inline;overflow:visible;visibility:visible;opacity:1;isolation:auto;mix-blend-mode:normal;color-interpolation:sRGB;color-interpolation-filters:linearRGB;solid-color:;solid-opacity:1;fill:#04bfbf;fill-opacity:1;fill-rule:nonzero;stroke:none;stroke-width:3.62480402;stroke-linecap:round;stroke-linejoin:round;stroke-miterlimit:4;stroke-dasharray:none;stroke-dashoffset:0;stroke-opacity:1;color-rendering:auto;image-rendering:auto;shape-rendering:auto;text-rendering:auto;enable-background:accumulate"></path><path d="m 53.800268,987.52575 a 1.5040573,1.496248 0 0 0 -1.397018,1.10441 l -7.678767,26.64744 a 1.5040573,1.496248 0 1 0 2.891275,0.8255 l 7.678787,-26.64912 a 1.5040573,1.496248 0 0 0 -1.494277,-1.92823 z" style="color:;font-style:normal;font-variant:normal;font-weight:normal;font-stretch:normal;font-size:medium;line-height:normal;font-family:sans-serif;text-indent:0;text-align:start;text-decoration:none;text-decoration-line:none;text-decoration-style:solid;text-decoration-color:;letter-spacing:normal;word-spacing:normal;text-transform:none;direction:ltr;block-progression:tb;writing-mode:lr-tb;baseline-shift:baseline;text-anchor:start;white-space:normal;clip-rule:nonzero;display:inline;overflow:visible;visibility:visible;opacity:1;isolation:auto;mix-blend-mode:normal;color-interpolation:sRGB;color-interpolation-filters:linearRGB;solid-color:;solid-opacity:1;fill:#04bfbf;fill-opacity:1;fill-rule:nonzero;stroke:none;stroke-width:3.62480402;stroke-linecap:round;stroke-linejoin:round;stroke-miterlimit:4;stroke-dasharray:none;stroke-dashoffset:0;stroke-opacity:1;color-rendering:auto;image-rendering:auto;shape-rendering:auto;text-rendering:auto;enable-background:accumulate"></path></g></g><g id="SvgjsG2000" featurekey="nameFeature-0" transform="matrix(1.1758777328304657,0,0,1.1758777328304657,86.70754324519821,12.347556447011527)" fill="#04bfbf"><path d="M2.8 11.120000000000001 q1.84 -0.16 3.72 -0.26 t3.84 -0.1 t4.02 0.4 t3.72 1.5 t2.7 3.06 t1.04 5.08 t-1.04 5.06 t-2.68 3.06 t-3.66 1.52 t-3.98 0.4 l-0.96 -0.04 q-0.48 0 -0.88 -0.04 l0 9.24 q-0.76 0.12 -1.48 0.16 t-1.38 0.04 t-1.42 -0.04 t-1.56 -0.16 l0 -28.88 z M8.64 25.92 q0.48 0.08 0.92 0.08 l1 0 q1 0 1.96 -0.26 t1.7 -0.86 t1.18 -1.58 t0.44 -2.44 t-0.44 -2.48 t-1.18 -1.64 t-1.7 -0.88 t-1.96 -0.26 l-0.8 0 q-0.4 0.04 -1.12 0.12 l0 10.2 z M26.4 11.239999999999998 q1.76 -0.2 3.3 -0.34 t3.42 -0.14 q2.2 0 4.34 0.4 t3.86 1.42 t2.78 2.76 t1.06 4.42 q0 1.6 -0.4 2.82 t-1.02 2.14 t-1.34 1.58 t-1.36 1.06 l-0.68 0.44 l7 12.16 l-1.68 0.16 q-0.88 0.08 -1.8 0.08 q-1.52 0 -3 -0.24 l-7.52 -13.36 l0.96 -0.48 q0.56 -0.28 1.36 -0.72 t1.54 -1.1 t1.26 -1.6 t0.52 -2.22 q0 -2.52 -1.44 -3.7 t-3.72 -1.18 q-0.88 0 -1.6 0.12 l0 24.28 l-1.44 0.12 q-0.72 0.08 -1.4 0.08 t-1.44 -0.04 t-1.56 -0.16 l0 -28.76 z M62.28 40.48 q-3.24 0 -5.6 -1.12 t-3.88 -3.1 t-2.26 -4.68 t-0.74 -5.9 t0.74 -5.94 t2.26 -4.74 t3.88 -3.12 t5.6 -1.12 t5.6 1.12 t3.88 3.12 t2.26 4.74 t0.74 5.94 t-0.74 5.9 t-2.26 4.68 t-3.88 3.1 t-5.6 1.12 z M62.28 35.6 q6.2 0 6.2 -9.92 q0 -4.96 -1.5 -7.44 t-4.66 -2.48 q-6.28 0 -6.28 9.92 t6.24 9.92 z M79.60000000000001 11.239999999999998 l16.32 0 q0.24 1.2 0.24 2.48 t-0.24 2.48 l-10.48 0 l0 6.76 l8.32 0 q0.24 1.28 0.24 2.52 t-0.24 2.48 l-8.32 0 l0 12.04 q-1.52 0.24 -2.88 0.24 q-1.48 0 -2.96 -0.24 l0 -28.76 z M115.68 25.08 q1.48 -0.24 2.88 -0.24 t2.92 0.24 l0 14.12 q-2.08 0.76 -4.34 1.02 t-3.94 0.26 q-3.52 0 -6.16 -1.1 t-4.4 -3.08 t-2.64 -4.7 t-0.88 -5.92 t0.92 -5.94 t2.66 -4.74 t4.28 -3.12 t5.78 -1.12 q1.92 0 3.58 0.24 t3.46 1 q-0.08 1.2 -0.48 2.34 t-0.88 2.3 q-1.4 -0.48 -2.48 -0.68 t-2.56 -0.2 q-3.84 0 -5.9 2.5 t-2.06 7.42 t2.04 7.34 t6 2.42 q0.68 0 1.24 -0.08 l0.96 -0.16 l0 -10.12 z M126.60000000000001 11.239999999999998 q1.48 -0.24 2.86 -0.24 t2.9 0.24 l0 23.72 l9.96 0 q0.12 0.68 0.16 1.3 t0.04 1.22 t-0.04 1.22 t-0.16 1.3 l-15.72 0 l0 -28.76 z M158.04000000000002 40.48 q-3.24 0 -5.6 -1.12 t-3.88 -3.1 t-2.26 -4.68 t-0.74 -5.9 t0.74 -5.94 t2.26 -4.74 t3.88 -3.12 t5.6 -1.12 t5.6 1.12 t3.88 3.12 t2.26 4.74 t0.74 5.94 t-0.74 5.9 t-2.26 4.68 t-3.88 3.1 t-5.6 1.12 z M158.04000000000002 35.6 q6.2 0 6.2 -9.92 q0 -4.96 -1.5 -7.44 t-4.66 -2.48 q-6.28 0 -6.28 9.92 t6.24 9.92 z M175.44 11.2 q1.28 -0.2 2.96 -0.32 t4.2 -0.12 q2.2 0 4.16 0.36 t3.42 1.22 t2.3 2.3 t0.84 3.6 q0 1.28 -0.38 2.38 t-1.02 1.92 t-1.44 1.36 t-1.64 0.66 q0.92 0.12 2.04 0.56 t2.08 1.3 t1.6 2.22 t0.64 3.28 q0 2.6 -0.98 4.26 t-2.64 2.62 t-3.84 1.32 t-4.58 0.36 q-1.84 0 -3.64 -0.1 t-4.08 -0.38 l0 -28.8 z M181.24 35.6 q0.56 0.08 1.3 0.12 t1.34 0.04 q0.84 0 1.76 -0.16 t1.72 -0.62 t1.32 -1.28 t0.52 -2.1 t-0.4 -2.1 t-1.14 -1.32 t-1.76 -0.7 t-2.26 -0.2 l-2.4 0 l0 8.32 z M183 22.88 q1 0 1.86 -0.18 t1.5 -0.64 t1 -1.24 t0.36 -1.96 t-0.42 -1.92 t-1.08 -1.16 t-1.48 -0.56 t-1.62 -0.14 q-1.12 0 -1.88 0.12 l0 7.68 l1.76 0 z M206.23999999999998 11.239999999999998 q0.84 -0.12 1.6 -0.18 t1.68 -0.06 q0.8 0 1.56 0.06 t1.68 0.18 l9 28.76 q-1.64 0.24 -3.18 0.24 t-2.98 -0.24 l-1.6 -5.76 l-9.52 0 l-1.64 5.76 q-1.44 0.24 -2.76 0.24 q-1.48 0 -2.92 -0.24 z M212.64 29.4 l-3.32 -12.08 l-3.48 12.08 l6.8 0 z M225 11.239999999999998 q1.48 -0.24 2.86 -0.24 t2.9 0.24 l0 23.72 l9.96 0 q0.12 0.68 0.16 1.3 t0.04 1.22 t-0.04 1.22 t-0.16 1.3 l-15.72 0 l0 -28.76 z"></path></g></svg>