<?xml version="1.0" encoding="iso-8859-1"?>
<!-- Generator: Adobe Illustrator 19.0.0, SVG Export Plug-In . SVG Version: 6.00 Build 0)  -->
<svg xmlns="http://www.w3.org/2000/svg" xmlns:xlink="http://www.w3.org/1999/xlink" version="1.1" id="Capa_1" x="0px" y="0px" viewBox="0 0 469.333 469.333" style="enable-background:new 0 0 469.333 469.333;" xml:space="preserve" width="512px" height="512px">
<g>
	<g>
		<g>
			<path d="M154.083,232.875l60.027,40.018l9.993,69.951c0.646,4.469,4.021,8.052,8.448,8.948c0.708,0.135,1.417,0.208,2.115,0.208     c3.698,0,7.198-1.927,9.146-5.177l26.246-43.742l54.691,36.461c1.771,1.188,3.833,1.792,5.917,1.792     c1.167,0,2.333-0.188,3.458-0.573c3.146-1.083,5.615-3.563,6.656-6.719l64-192c1.302-3.885,0.26-8.167-2.677-11.021     c-2.938-2.865-7.26-3.771-11.083-2.375l-234.667,85.333c-3.781,1.375-6.469,4.75-6.948,8.75     C148.927,226.719,150.74,230.646,154.083,232.875z M284.698,239.021l-27.073,43.323c-0.036,0.059-0.036,0.128-0.072,0.186     l-0.033-0.02l-16.542,27.573l-5.466-38.272L284.698,239.021z" fill="#ff2828"/>
			<path d="M63.542,252.854c3.75,2.917,7.25,6.135,10.469,9.635c2.104,2.292,4.969,3.458,7.854,3.458     c2.583,0,5.167-0.927,7.208-2.813c4.344-3.979,4.635-10.729,0.646-15.062c-3.979-4.344-8.375-8.396-13.052-12.052     c-4.677-3.625-11.354-2.813-14.979,1.854C58.073,242.521,58.896,249.229,63.542,252.854z" fill="#ff2828"/>
			<path d="M151.271,402.688c6.219,1.74,12.667,2.635,19.188,2.646c6.406,0,12.771-0.865,18.927-2.573     c5.677-1.583,9-7.458,7.427-13.135c-1.583-5.667-7.469-8.979-13.135-7.427c-8.729,2.417-18.052,2.354-26.635-0.052     c-5.667-1.573-11.552,1.708-13.156,7.385C142.292,395.208,145.604,401.094,151.271,402.688z" fill="#ff2828"/>
			<path d="M109.375,336.458c-5.771,1.208-9.458,6.865-8.25,12.625c2.646,12.646,8.729,24.323,17.583,33.792     c2.104,2.25,4.948,3.385,7.792,3.385c2.615,0,5.229-0.948,7.281-2.875c4.302-4.021,4.531-10.771,0.51-15.073     c-6.188-6.625-10.438-14.781-12.292-23.604C120.792,338.927,115.135,335.26,109.375,336.458z" fill="#ff2828"/>
			<path d="M89.771,286.875C92.906,294.229,95,302.01,96,310l0.719,5.74c0.677,5.396,5.271,9.344,10.573,9.344     c0.438,0,0.885-0.031,1.333-0.083c5.844-0.729,9.99-6.063,9.26-11.906l-0.719-5.74c-1.25-9.969-3.865-19.667-7.771-28.833     c-2.302-5.438-8.615-7.958-13.99-5.635C89.979,275.198,87.458,281.458,89.771,286.875z" fill="#ff2828"/>
			<path d="M229.917,353.792c-4.917-3.281-11.531-1.948-14.792,2.958l-3.479,5.208c-1.5,2.25-3.156,4.354-4.969,6.302     c-4.01,4.313-3.76,11.063,0.552,15.073c2.052,1.906,4.656,2.854,7.26,2.854c2.854,0,5.708-1.146,7.813-3.406     c2.583-2.781,4.969-5.781,7.104-9l3.469-5.198C236.146,363.688,234.823,357.063,229.917,353.792z" fill="#ff2828"/>
			<path d="M426.667,0h-384C19.146,0,0,19.135,0,42.667v384c0,23.531,19.146,42.667,42.667,42.667h384     c23.521,0,42.667-19.135,42.667-42.667v-384C469.333,19.135,450.188,0,426.667,0z M138.667,42.667     c5.891,0,10.667,4.775,10.667,10.667c0,5.891-4.776,10.667-10.667,10.667S128,59.224,128,53.333     C128,47.441,132.776,42.667,138.667,42.667z M96,42.667c5.891,0,10.667,4.775,10.667,10.667C106.667,59.224,101.891,64,96,64     s-10.667-4.776-10.667-10.667C85.333,47.441,90.109,42.667,96,42.667z M53.333,42.667C59.224,42.667,64,47.441,64,53.333     C64,59.224,59.224,64,53.333,64s-10.667-4.776-10.667-10.667C42.667,47.441,47.443,42.667,53.333,42.667z M426.667,426.667h-384     v-320h384V426.667z" fill="#ff2828"/>
		</g>
	</g>
</g>
<g>
</g>
<g>
</g>
<g>
</g>
<g>
</g>
<g>
</g>
<g>
</g>
<g>
</g>
<g>
</g>
<g>
</g>
<g>
</g>
<g>
</g>
<g>
</g>
<g>
</g>
<g>
</g>
<g>
</g>
</svg>
