<?xml version="1.0" encoding="UTF-8"?>
<svg class="css-1j8o68f" width="396" height="107.04" version="1.1" viewBox="0 0 369.87 99.98" xmlns="http://www.w3.org/2000/svg">
 <g fill="#0693e3">
  <g transform="matrix(1.1762 0 0 1.1762 -26.867 -2.9401)" featurekey="symbolFeature-0">
   <path d="m65.532 53.661c2.473-2.341 2.081-5.645-0.869-7.341l-5.563-3.202c-2.95-1.697-4.723-5.797-3.941-9.109l6.699-28.398c0.781-3.312-0.602-4.108-3.073-1.767l-34.318 32.495c-2.472 2.341-2.08 5.644 0.87 7.342l5.562 3.2c2.949 1.698 4.724 5.798 3.943 9.109l-6.701 28.398c-0.78 3.312 0.602 4.107 3.074 1.767l34.317-32.494z"/>
  </g>
  <g transform="matrix(1.2509 0 0 1.2509 68.497 5.54)" featurekey="nameFeature-0">
   <path d="m2.8 11.12q1.84-0.16 3.72-0.26t3.84-0.1 4.02 0.4 3.72 1.5 2.7 3.06 1.04 5.08-1.04 5.06-2.68 3.06-3.66 1.52-3.98 0.4l-0.96-0.04q-0.48 0-0.88-0.04v9.24q-0.76 0.12-1.48 0.16t-1.38 0.04-1.42-0.04-1.56-0.16v-28.88zm5.84 14.8q0.48 0.08 0.92 0.08h1q1 0 1.96-0.26t1.7-0.86 1.18-1.58 0.44-2.44-0.44-2.48-1.18-1.64-1.7-0.88-1.96-0.26h-0.8q-0.4 0.04-1.12 0.12v10.2zm17.76-14.68q1.76-0.2 3.3-0.34t3.42-0.14q2.2 0 4.34 0.4t3.86 1.42 2.78 2.76 1.06 4.42q0 1.6-0.4 2.82t-1.02 2.14-1.34 1.58-1.36 1.06l-0.68 0.44 7 12.16-1.68 0.16q-0.88 0.08-1.8 0.08-1.52 0-3-0.24l-7.52-13.36 0.96-0.48q0.56-0.28 1.36-0.72t1.54-1.1 1.26-1.6 0.52-2.22q0-2.52-1.44-3.7t-3.72-1.18q-0.88 0-1.6 0.12v24.28l-1.44 0.12q-0.72 0.08-1.4 0.08t-1.44-0.04-1.56-0.16v-28.76zm35.88 29.24q-3.24 0-5.6-1.12t-3.88-3.1-2.26-4.68-0.74-5.9 0.74-5.94 2.26-4.74 3.88-3.12 5.6-1.12 5.6 1.12 3.88 3.12 2.26 4.74 0.74 5.94-0.74 5.9-2.26 4.68-3.88 3.1-5.6 1.12zm0-4.88q6.2 0 6.2-9.92 0-4.96-1.5-7.44t-4.66-2.48q-6.28 0-6.28 9.92t6.24 9.92zm17.32-24.36h16.32q0.24 1.2 0.24 2.48t-0.24 2.48h-10.48v6.76h8.32q0.24 1.28 0.24 2.52t-0.24 2.48h-8.32v12.04q-1.52 0.24-2.88 0.24-1.48 0-2.96-0.24v-28.76zm36.08 13.84q1.48-0.24 2.88-0.24t2.92 0.24v14.12q-2.08 0.76-4.34 1.02t-3.94 0.26q-3.52 0-6.16-1.1t-4.4-3.08-2.64-4.7-0.88-5.92 0.92-5.94 2.66-4.74 4.28-3.12 5.78-1.12q1.92 0 3.58 0.24t3.46 1q-0.08 1.2-0.48 2.34t-0.88 2.3q-1.4-0.48-2.48-0.68t-2.56-0.2q-3.84 0-5.9 2.5t-2.06 7.42 2.04 7.34 6 2.42q0.68 0 1.24-0.08l0.96-0.16v-10.12zm10.92-13.84q1.48-0.24 2.86-0.24t2.9 0.24v23.72h9.96q0.12 0.68 0.16 1.3t0.04 1.22-0.04 1.22-0.16 1.3h-15.72v-28.76zm31.44 29.24q-3.24 0-5.6-1.12t-3.88-3.1-2.26-4.68-0.74-5.9 0.74-5.94 2.26-4.74 3.88-3.12 5.6-1.12 5.6 1.12 3.88 3.12 2.26 4.74 0.74 5.94-0.74 5.9-2.26 4.68-3.88 3.1-5.6 1.12zm0-4.88q6.2 0 6.2-9.92 0-4.96-1.5-7.44t-4.66-2.48q-6.28 0-6.28 9.92t6.24 9.92zm17.4-24.4q1.28-0.2 2.96-0.32t4.2-0.12q2.2 0 4.16 0.36t3.42 1.22 2.3 2.3 0.84 3.6q0 1.28-0.38 2.38t-1.02 1.92-1.44 1.36-1.64 0.66q0.92 0.12 2.04 0.56t2.08 1.3 1.6 2.22 0.64 3.28q0 2.6-0.98 4.26t-2.64 2.62-3.84 1.32-4.58 0.36q-1.84 0-3.64-0.1t-4.08-0.38v-28.8zm5.8 24.4q0.56 0.08 1.3 0.12t1.34 0.04q0.84 0 1.76-0.16t1.72-0.62 1.32-1.28 0.52-2.1-0.4-2.1-1.14-1.32-1.76-0.7-2.26-0.2h-2.4v8.32zm1.76-12.72q1 0 1.86-0.18t1.5-0.64 1-1.24 0.36-1.96-0.42-1.92-1.08-1.16-1.48-0.56-1.62-0.14q-1.12 0-1.88 0.12v7.68h1.76zm23.24-11.64q0.84-0.12 1.6-0.18t1.68-0.06q0.8 0 1.56 0.06t1.68 0.18l9 28.76q-1.64 0.24-3.18 0.24t-2.98-0.24l-1.6-5.76h-9.52l-1.64 5.76q-1.44 0.24-2.76 0.24-1.48 0-2.92-0.24zm6.4 18.16-3.32-12.08-3.48 12.08h6.8zm12.36-18.16q1.48-0.24 2.86-0.24t2.9 0.24v23.72h9.96q0.12 0.68 0.16 1.3t0.04 1.22-0.04 1.22-0.16 1.3h-15.72v-28.76z"/>
  </g>
  <g transform="matrix(1.1041 0 0 1.1041 70.388 60.06)" featurekey="sloganFeature-0">
   <path d="m1.46 5.62q0.84-0.1 1.76-0.17t2.04-0.07q3.78 0 5.75 1.88t1.97 5.65-2 5.55-5.94 1.78q-1.02 0-1.88-0.07t-1.7-0.17v-14.38zm2.94 12.06q0.18 0.02 0.46 0.04t0.68 0.02q0.92 0 1.71-0.21t1.37-0.77 0.92-1.5 0.34-2.4-0.34-2.42-0.92-1.52-1.33-0.79-1.59-0.23h-0.64q-0.38 0.02-0.66 0.06v9.72zm11-12.06q0.74-0.12 1.46-0.12t1.48 0.12v14.38q-0.76 0.12-1.48 0.12t-1.46-0.12v-14.38zm13.64 6.92q0.74-0.12 1.44-0.12t1.46 0.12v7.06q-1.04 0.38-2.17 0.51t-1.97 0.13q-1.76 0-3.08-0.55t-2.2-1.54-1.32-2.35-0.44-2.96 0.46-2.97 1.33-2.37 2.14-1.56 2.89-0.56q0.96 0 1.79 0.12t1.73 0.5q-0.04 0.6-0.24 1.17t-0.44 1.15q-0.7-0.24-1.24-0.34t-1.28-0.1q-1.92 0-2.95 1.25t-1.03 3.71 1.02 3.67 3 1.21q0.34 0 0.62-0.04l0.48-0.08v-5.06zm5.46-6.92q0.74-0.12 1.46-0.12t1.48 0.12v14.38q-0.76 0.12-1.48 0.12t-1.46-0.12v-14.38zm8.54 2.48h-3.58q-0.12-0.6-0.12-1.24t0.12-1.24h10.1q0.12 0.6 0.12 1.24t-0.12 1.24h-3.58v11.9l-0.72 0.06q-0.36 0.04-0.7 0.04t-0.73-0.02-0.79-0.08v-11.9zm11.88-2.48q0.42-0.06 0.8-0.09t0.84-0.03q0.4 0 0.78 0.03t0.84 0.09l4.5 14.38q-0.82 0.12-1.59 0.12t-1.49-0.12l-0.8-2.88h-4.76l-0.82 2.88q-0.72 0.12-1.38 0.12-0.74 0-1.46-0.12zm3.2 9.08-1.66-6.04-1.74 6.04h3.4zm6.18-9.08q0.74-0.12 1.43-0.12t1.45 0.12v11.86h4.98q0.06 0.34 0.08 0.65t0.02 0.61-0.02 0.61-0.08 0.65h-7.86v-14.38zm14.66 0q0.8-0.12 1.56-0.12t1.52 0.12l3.3 8.24 3.4-8.24q0.62-0.12 1.38-0.12t1.46 0.12l0.68 14.38q-0.76 0.12-1.44 0.12t-1.34-0.12l-0.36-9.76-2.92 6.76q-0.28 0.04-0.58 0.07t-0.58 0.03-0.54-0.02-0.54-0.08l-2.72-6.9-0.28 9.9q-0.64 0.12-1.26 0.12t-1.3-0.12zm19.28 0q0.42-0.06 0.8-0.09t0.84-0.03q0.4 0 0.78 0.03t0.84 0.09l4.5 14.38q-0.82 0.12-1.59 0.12t-1.49-0.12l-0.8-2.88h-4.76l-0.82 2.88q-0.72 0.12-1.38 0.12-0.74 0-1.46-0.12zm3.2 9.08-1.66-6.04-1.74 6.04h3.4zm6.32-9.08q0.88-0.1 1.65-0.17t1.71-0.07q1.1 0 2.17 0.2t1.93 0.71 1.39 1.38 0.53 2.21q0 0.8-0.2 1.41t-0.51 1.07-0.67 0.79-0.68 0.53l-0.34 0.22 3.5 6.08-0.84 0.08q-0.44 0.04-0.9 0.04-0.76 0-1.5-0.12l-3.76-6.68 0.48-0.24q0.28-0.14 0.68-0.36t0.77-0.55 0.63-0.8 0.26-1.11q0-1.26-0.72-1.85t-1.86-0.59q-0.44 0-0.8 0.06v12.14l-0.72 0.06q-0.36 0.04-0.7 0.04t-0.72-0.02-0.78-0.08v-14.38zm15.42 7.14 3.9-7.14q0.46-0.08 0.85-0.1t0.72-0.02 0.75 0.04l0.88 0.08-3.94 6.94 4.28 7.44-0.88 0.08q-0.44 0.04-0.77 0.04t-0.72-0.02-0.87-0.1zm-3.34-7.16q0.38-0.06 0.74-0.08t0.72-0.02 0.72 0.02 0.74 0.08v14.42q-0.38 0.06-0.74 0.08t-0.72 0.02-0.72-0.02-0.74-0.08v-14.42zm12.38 0.02h8.16q0.12 0.6 0.12 1.24t-0.12 1.24h-5.24v3.12h4.16q0.12 0.64 0.12 1.26t-0.12 1.24h-4.16v3.8h5.38q0.12 0.6 0.12 1.24t-0.12 1.24h-8.3v-14.38zm13.42 2.48h-3.58q-0.12-0.6-0.12-1.24t0.12-1.24h10.1q0.12 0.6 0.12 1.24t-0.12 1.24h-3.58v11.9l-0.72 0.06q-0.36 0.04-0.7 0.04t-0.73-0.02-0.79-0.08v-11.9zm8.54-2.54q0.92-0.08 1.86-0.13t1.92-0.05 2.01 0.2 1.86 0.75 1.35 1.53 0.52 2.54-0.52 2.53-1.34 1.53-1.83 0.76-1.99 0.2l-0.48-0.02q-0.24 0-0.44-0.02v4.62q-0.38 0.06-0.74 0.08t-0.69 0.02-0.71-0.02-0.78-0.08v-14.44zm2.92 7.4q0.24 0.04 0.46 0.04h0.5q0.5 0 0.98-0.13t0.85-0.43 0.59-0.79 0.22-1.22-0.22-1.24-0.59-0.82-0.85-0.44-0.98-0.13h-0.4q-0.2 0.02-0.56 0.06v5.1zm8.74-7.34q0.74-0.12 1.43-0.12t1.45 0.12v11.86h4.98q0.06 0.34 0.08 0.65t0.02 0.61-0.02 0.61-0.08 0.65h-7.86v-14.38zm13.2 0q0.42-0.06 0.8-0.09t0.84-0.03q0.4 0 0.78 0.03t0.84 0.09l4.5 14.38q-0.82 0.12-1.59 0.12t-1.49-0.12l-0.8-2.88h-4.76l-0.82 2.88q-0.72 0.12-1.38 0.12-0.74 0-1.46-0.12zm3.2 9.08-1.66-6.04-1.74 6.04h3.4zm15.68 2.58q0.26 0.56 0.43 1.15t0.25 1.19q-1.04 0.38-1.87 0.5t-1.79 0.12q-1.7 0-2.98-0.55t-2.15-1.54-1.31-2.35-0.44-2.96 0.46-2.97 1.33-2.37 2.14-1.56 2.89-0.56q0.96 0 1.77 0.12t1.75 0.5q-0.04 0.6-0.24 1.17t-0.44 1.15q-0.7-0.24-1.24-0.34t-1.28-0.1q-1.92 0-2.95 1.25t-1.03 3.71q0 4.88 4.14 4.88 0.74 0 1.3-0.1t1.26-0.34zm2.86-11.66h8.16q0.12 0.6 0.12 1.24t-0.12 1.24h-5.24v3.12h4.16q0.12 0.64 0.12 1.26t-0.12 1.24h-4.16v3.8h5.38q0.12 0.6 0.12 1.24t-0.12 1.24h-8.3v-14.38z"/>
  </g>
 </g>
</svg>
