<?xml version="1.0" encoding="UTF-8"?>
<svg class="css-1j8o68f" width="429" height="93.707" version="1.1" viewBox="0 0 370 80.82" xmlns="http://www.w3.org/2000/svg">
 <g fill="#0693e3">
  <g transform="matrix(22.683 0 0 22.683 -21.708 -16.286)" featurekey="symbolFeature-0">
   <g fill="#0693e3">
    <path d="m2.501 4.281-1.543-0.89-1e-3 -1.781 1.542-0.892 1.543 0.891 1e-3 1.78-1.542 0.892zm-1.093-1.149 1.093 0.63 1.092-0.632-1e-3 -1.261-1.093-0.631-1.092 0.632 1e-3 1.262z"/>
    <path d="M2.5,3.433L1.693,2.967L1.692,2.034l0.807-0.466l0.809,0.466v0.932L2.5,3.433z M2.143,2.707L2.5,2.913   l0.357-0.207V2.294L2.5,2.088L2.143,2.294V2.707z"/>
   </g>
  </g>
  <g transform="matrix(1.4055 0 0 1.4055 87.211 -6.5174)" featurekey="nameFeature-0">
   <path d="m2.04 15.24c0.04 2.36 0.04 22.4 0.04 24.04 0 0.6 0.08 0.72 0.68 0.72 1.36 0 1.36 0.04 2.72 0 0.28 0 0.76 0 1-0.12 0.28-0.12 0.12-9.56 0.12-10.08 0-0.56 1.12-0.44 1.44-0.44 6.68 0 8.52-4.8 8.52-8.88 0-3.68-0.72-10.48-9.04-10.48-1.44 0-2.92 0.04-4.32 0.04-0.32 0-0.72-0.04-1 0.16-0.32 0.24-0.2 3.8-0.16 5.04zm4.6 8.24c0-0.88-0.04-6.12 0-7.72 0-0.24-0.04-0.52 0-0.8 0.12-0.44 0.64-0.44 1.04-0.4 2.32 0.16 3.64 2.2 3.84 4.36 0.16 1.56-0.04 3.88-1.16 5.12-0.8 0.84-1.84 1.36-3.2 1.36-0.28 0-0.56-0.32-0.56-0.6 0-0.44 0-0.88 0.04-1.32zm18.88 13.52c0-1.04 0-7.6 0.04-8.12 0.04-0.12 0.12-0.36 0.28-0.36s0.24 0.08 0.28 0.2c1.6 3.12 3 6.24 4.44 9.28 0.2 0.44 0.64 1.72 0.76 1.84 0.16 0.24 0.44 0.16 0.68 0.16l4.4 0.04c0.52 0 0.64-0.32 0.52-0.76-0.32-1.2-2.6-5.44-3.12-6.48-0.36-0.8-2.76-5.44-2.84-5.8-0.08-0.16 0.52-0.44 0.6-0.56 1.92-1.72 3.64-3.48 4-6.16 0.4-2.64-0.2-5.52-1.92-7.64-1.32-1.56-3.04-2.48-5.08-2.6-1.24-0.08-2.44 0.04-3.68 0-1.08-0.04-1.84-0.04-3.2-0.04-0.64 0-1.04 0.36-1.08 1.04v0.48c-0.08 3.08 0 6.16 0.04 9.2 0 4.64-0.08 16.88-0.08 18.64 0 0.52 0.08 0.64 0.56 0.64 0.28 0 0.6 0.04 0.88 0.04 1.12 0 1.8-0.04 2.96-0.04 0.88 0 0.56-1.44 0.56-3zm0-15.6 0.04-4.04c0.04-0.6-0.16-1.8 0.4-2.24 0.76-0.56 2.32 0 3 0.48 2 1.36 1.84 4.72 0.76 6.6-0.52 0.88-1.4 1.4-2.4 1.68-0.6 0.16-1.72 0.36-1.76-0.6 0-0.64-0.04-1.88-0.04-1.88zm36.52-4.04c0.84 2.48 1.04 5.16 1.04 7.8 0 2.2-0.4 4.32-0.96 6.44-0.72 2.52-1.92 4.8-4.08 6.28-1.6 1.16-3.28 1.92-5.24 2.12-0.28 0-0.52 0.04-0.8 0.04-0.24 0-0.48-0.04-0.76-0.04-1.96-0.2-3.64-0.96-5.28-2.12-2.12-1.48-3.36-3.76-4.04-6.28-0.6-2.12-0.96-4.24-0.96-6.44 0-2.64 0.2-5.32 1.04-7.8 1.48-4.28 5.56-7.32 10-7.4 4.44 0.08 8.52 3.12 10.04 7.4zm-3.88 10.72c0.4-2.44 0.24-4.92-0.24-7.36-0.48-2.2-1.44-4.36-3.28-5.68-0.32-0.24-0.68-0.44-1.04-0.56-0.52-0.24-1.08-0.32-1.6-0.32s-1.04 0.08-1.56 0.32c-0.4 0.12-0.72 0.32-1.04 0.56-1.88 1.32-2.84 3.48-3.28 5.68-0.48 2.44-0.64 4.92-0.24 7.36 0.4 2.2 1.2 5.16 3.28 6.28 0.88 0.48 1.84 0.8 2.84 0.84 1-0.04 2-0.36 2.88-0.84 2.08-1.12 2.88-4.08 3.28-6.28zm8.96 3.72h-0.04c0 1-0.04 2.04 0 3.08 0.04 1.28 0.08 2.56 0.16 3.84 0.04 0.44 0.12 0.56 0.56 0.64 0.8 0.2 1.64 0.24 2.48 0.24 2.16-0.08 2.16-0.44 2.16-1.92-0.08-0.76-0.04-1.08-0.04-2 0-1.32-0.04-1.48-0.04-3.36 0.04-1.52 0.04-3.48 0.04-5.04 0-0.84 0.12-1.12 0.88-1.12h5.84c0.84 0.12 0.52-0.44 0.52-1.28s0.12-0.88 0.08-1.72c0-0.4-0.08-0.8-0.12-1.2-0.08-0.68-0.32-0.92-1-0.92-0.44 0-0.04 0.04-0.44 0.08-1.72 0.12-3.36-0.12-5.08 0-0.56 0-0.64-0.08-0.68-0.6-0.12-1.56 0-3.28 0.16-4.84 0.08-0.64 0.2-0.76 0.8-0.8l5.64-0.04c0.8-0.08 1.04-0.04 0.96-0.8-0.08-1.16 0.08-2.36-0.08-3.52-0.08-0.64-0.24-0.76-0.96-0.76-1.2 0.04-1.48 0.04-2.68 0.12-1.2 0.04-6.04 0.04-7.2 0.04-1.64 0-1.8-0.12-1.84 1.92-0.04 1.6-0.04 3.24-0.04 4.88 0 2.8-0.16 12.84-0.04 15.08zm34.72 1.48c0.04 1.92 0 3.88-0.12 5.8 0 0.16-0.12 0.32-0.24 0.4-0.16 0.12-0.36 0.2-0.56 0.2-2.48 0.4-5.48 0.6-7.88-0.2-5.4-1.84-9.08-7.88-9.08-14.8 0-7.48 5.36-14.76 13.16-15.04 1.04-0.04 4.6-0.2 4.48 1.56-0.08 1.28 0.04 2.32 0 3.64 0 0.24-0.16 0.4-0.4 0.36-2.28-0.28-4.88-1-7.08 0.04-1.84 0.88-3.12 2.76-3.84 4.6-1.28 3.04-1 6.56-0.12 9.68 0.68 2.48 2.16 5.4 5.12 5.48 0.16 0.04 1.68 0.12 1.68-0.04l-0.12-5.12c-0.04-0.24-0.04-0.48-0.08-0.72s-0.2-0.32-0.44-0.36c-0.64 0-0.64-0.04-1.28-0.04-1.48 0-1.16-1-1.2-1.32-0.04-0.6 0-1.16-0.04-1.76-0.04-0.56 0.12-1 0.68-1.08h0.48c2.08-0.12 4.2 0.04 6.4 0.04 0.32 0 0.48 0.4 0.48 0.76 0.04 0.4 0.04 0.68 0.04 1.08 0.12 1.96-0.12 3.96-0.08 5.92 0.04 0.32 0.04 0.6 0.04 0.92zm4.08-19.36c-0.04 2.48 0.2 20.6 0.16 21.92 0 1.24 0 2.48 0.04 3.72 0 0.2 0.12 0.4 0.32 0.4 2.8 0.12 5.56-0.12 8.36-0.08 0.92 0.04 1.84 0 2.72 0 0.88-0.04 0.96-0.4 0.92-1.12-0.04-1.12-0.04-2.12-0.04-3.2-0.04-0.56-0.36-0.76-0.84-0.76-1.64 0.04-3.28-0.04-4.92 0.04-0.28 0.04-0.56 0.04-0.84 0.04-0.48-0.04-0.6-0.16-0.64-0.68v-0.6c-0.12-3.32 0.12-6.76 0.12-10.08-0.04-2.8 0-5.32-0.04-7.8 0-1.08 0-2.16-0.04-3.2-0.04-0.64 0-1.32-0.16-1.96-0.08-0.24-0.2-0.56-0.48-0.56h-3.76c-0.64 0-0.84 0.44-0.88 1.08v2.84zm37.6 3.44c0.84 2.48 1.04 5.16 1.04 7.8 0 2.2-0.4 4.32-0.96 6.44-0.72 2.52-1.92 4.8-4.08 6.28-1.6 1.16-3.28 1.92-5.24 2.12-0.28 0-0.52 0.04-0.8 0.04-0.24 0-0.48-0.04-0.76-0.04-1.96-0.2-3.64-0.96-5.28-2.12-2.12-1.48-3.36-3.76-4.04-6.28-0.6-2.12-0.96-4.24-0.96-6.44 0-2.64 0.2-5.32 1.04-7.8 1.48-4.28 5.56-7.32 10-7.4 4.44 0.08 8.52 3.12 10.04 7.4zm-3.88 10.72c0.4-2.44 0.24-4.92-0.24-7.36-0.48-2.2-1.44-4.36-3.28-5.68-0.32-0.24-0.68-0.44-1.04-0.56-0.52-0.24-1.08-0.32-1.6-0.32s-1.04 0.08-1.56 0.32c-0.4 0.12-0.72 0.32-1.04 0.56-1.88 1.32-2.84 3.48-3.28 5.68-0.48 2.44-0.64 4.92-0.24 7.36 0.4 2.2 1.2 5.16 3.28 6.28 0.88 0.48 1.84 0.8 2.84 0.84 1-0.04 2-0.36 2.88-0.84 2.08-1.12 2.88-4.08 3.28-6.28zm8.96-15c0 1.92-0.08 22.56 0 24.4 0.04 0.44 0.04 0.88 0.04 1.32 0 0.32 0.2 0.52 0.48 0.64 0.24 0.08 0.56 0.16 0.8 0.16 1.16-0.12 2.4 0 3.6-0.04 2.08 0.16 3.96-0.32 5.76-1.28 1.68-0.96 2.6-2.68 3.24-4.48 0.52-1.52 0.44-3.32 0.16-4.88-0.24-1.4-0.88-2.76-1.72-3.88-0.12-0.16-1.84-1.24-1.76-1.32 1.04-1.48 2.52-2.72 2.72-4.56 0.16-1.6-0.2-3.24-0.76-4.72-0.36-0.96-0.84-1.88-1.6-2.6-1.28-1.2-3.2-1.72-4.88-1.88-1.72-0.16-3.32-0.04-5.04-0.12-0.6 0-0.88 0.24-0.88 0.88 0 0.84-0.16 1.52-0.16 2.36zm4.92 7.28c-0.04-0.44 0-3.96-0.08-5.28-0.04-0.48 0.24-0.72 0.76-0.6 0.4 0.08 0.72 0.12 1.04 0.36 1 0.76 1.76 1.68 1.8 2.96 0 0.64 0 1.28-0.24 1.88-0.28 0.72-0.68 1.28-1.4 1.64-0.48 0.24-0.92 0.52-1.4 0.72-0.24 0.08-0.48-0.04-0.52-0.28 0-0.48 0.04-1.4 0.04-1.4zm4 10.6c0 0.2-0.04 0.56-0.04 0.92-0.04 1.2-1.6 2.72-3.4 2.76-0.12 0-0.32-0.12-0.36-0.24-0.08-0.24-0.16-0.52-0.16-0.8-0.04-1.24 0-2.44 0-3.76 0.12-0.84 0.04-1.72 0.04-2.6 0.04-0.68 0.2-0.8 0.84-0.92 0.96-0.12 1.84 0.28 2.28 1.04 0.52 0.92 0.72 1.92 0.8 2.96v0.64zm13.08 8.72c0.12 0.04 0.48 0.04 0.84 0.04 0.8 0 1.04-2.88 1.12-3.48 0.04-0.48 0.16-0.52 0.56-0.6 2-0.24 3-0.08 5-0.04 0.44 0 0.68 0.2 0.8 0.56l0.28 0.92c0.24 0.68 0.44 1.52 0.68 2.2 0.16 0.48 0.2 0.44 0.68 0.44 0.64 0 2.96 0 3.64-0.04 0.92 0 0.28-1.88 0.16-2.2-0.36-1.12-0.44-2.28-0.8-3.4-0.16-0.48-4.72-22.12-4.92-23.32-0.28-0.72-0.04-0.76-0.68-0.76-1.36 0-2.8 0.08-4.2 0-0.56 0-0.52 0.16-0.6 0.76-0.08 0.56-1.52 6.92-2.08 9.56-0.72 3.32-1.36 6.52-2.16 9.8-0.28 1.16-2.2 9.52-1.96 9.56 0.12 0.08 0.32 0.04 0.48 0.04 1 0 1.92 0 3.16-0.04zm5.24-9.08h-0.84c-1.12 0-1.16 0-0.88-1.16 0.2-0.88 1.28-5.64 1.52-6.8 0.04-0.08 0.12-0.16 0.16-0.16 0.08 0 0.16 0.08 0.2 0.12 0.16 0.48 0.32 1.68 0.48 2.16 0.36 1.52 0.6 2.8 0.96 4.44 0.36 1.44 0.2 1.44-0.52 1.44-0.36 0-0.72-0.04-1.08-0.04zm12.84-16.68c-0.04 2.48 0.2 20.6 0.16 21.92 0 1.24 0 2.48 0.04 3.72 0 0.2 0.12 0.4 0.32 0.4 2.8 0.12 5.56-0.12 8.36-0.08 0.92 0.04 1.84 0 2.72 0 0.88-0.04 0.96-0.4 0.92-1.12-0.04-1.12-0.04-2.12-0.04-3.2-0.04-0.56-0.36-0.76-0.84-0.76-1.64 0.04-3.28-0.04-4.92 0.04-0.28 0.04-0.56 0.04-0.84 0.04-0.48-0.04-0.6-0.16-0.64-0.68v-0.6c-0.12-3.32 0.12-6.76 0.12-10.08-0.04-2.8 0-5.32-0.04-7.8 0-1.08 0-2.16-0.04-3.2-0.04-0.64 0-1.32-0.16-1.96-0.08-0.24-0.2-0.56-0.48-0.56h-3.76c-0.64 0-0.84 0.44-0.88 1.08v2.84z"/>
  </g>
  <g transform="matrix(1.0378 0 0 1.0378 88.485 54.416)" featurekey="sloganFeature-0">
   <path d="m1.46 5.62q0.84-0.1 1.76-0.17t2.04-0.07q3.78 0 5.75 1.88t1.97 5.65-2 5.55-5.94 1.78q-1.02 0-1.88-0.07t-1.7-0.17v-14.38zm2.94 12.06q0.18 0.02 0.46 0.04t0.68 0.02q0.92 0 1.71-0.21t1.37-0.77 0.92-1.5 0.34-2.4-0.34-2.42-0.92-1.52-1.33-0.79-1.59-0.23h-0.64q-0.38 0.02-0.66 0.06v9.72zm11-12.06q0.74-0.12 1.46-0.12t1.48 0.12v14.38q-0.76 0.12-1.48 0.12t-1.46-0.12v-14.38zm13.64 6.92q0.74-0.12 1.44-0.12t1.46 0.12v7.06q-1.04 0.38-2.17 0.51t-1.97 0.13q-1.76 0-3.08-0.55t-2.2-1.54-1.32-2.35-0.44-2.96 0.46-2.97 1.33-2.37 2.14-1.56 2.89-0.56q0.96 0 1.79 0.12t1.73 0.5q-0.04 0.6-0.24 1.17t-0.44 1.15q-0.7-0.24-1.24-0.34t-1.28-0.1q-1.92 0-2.95 1.25t-1.03 3.71 1.02 3.67 3 1.21q0.34 0 0.62-0.04l0.48-0.08v-5.06zm5.46-6.92q0.74-0.12 1.46-0.12t1.48 0.12v14.38q-0.76 0.12-1.48 0.12t-1.46-0.12v-14.38zm8.54 2.48h-3.58q-0.12-0.6-0.12-1.24t0.12-1.24h10.1q0.12 0.6 0.12 1.24t-0.12 1.24h-3.58v11.9l-0.72 0.06q-0.36 0.04-0.7 0.04t-0.73-0.02-0.79-0.08v-11.9zm11.88-2.48q0.42-0.06 0.8-0.09t0.84-0.03q0.4 0 0.78 0.03t0.84 0.09l4.5 14.38q-0.82 0.12-1.59 0.12t-1.49-0.12l-0.8-2.88h-4.76l-0.82 2.88q-0.72 0.12-1.38 0.12-0.74 0-1.46-0.12zm3.2 9.08-1.66-6.04-1.74 6.04h3.4zm6.18-9.08q0.74-0.12 1.43-0.12t1.45 0.12v11.86h4.98q0.06 0.34 0.08 0.65t0.02 0.61-0.02 0.61-0.08 0.65h-7.86v-14.38zm14.66 0q0.8-0.12 1.56-0.12t1.52 0.12l3.3 8.24 3.4-8.24q0.62-0.12 1.38-0.12t1.46 0.12l0.68 14.38q-0.76 0.12-1.44 0.12t-1.34-0.12l-0.36-9.76-2.92 6.76q-0.28 0.04-0.58 0.07t-0.58 0.03-0.54-0.02-0.54-0.08l-2.72-6.9-0.28 9.9q-0.64 0.12-1.26 0.12t-1.3-0.12zm19.28 0q0.42-0.06 0.8-0.09t0.84-0.03q0.4 0 0.78 0.03t0.84 0.09l4.5 14.38q-0.82 0.12-1.59 0.12t-1.49-0.12l-0.8-2.88h-4.76l-0.82 2.88q-0.72 0.12-1.38 0.12-0.74 0-1.46-0.12zm3.2 9.08-1.66-6.04-1.74 6.04h3.4zm6.32-9.08q0.88-0.1 1.65-0.17t1.71-0.07q1.1 0 2.17 0.2t1.93 0.71 1.39 1.38 0.53 2.21q0 0.8-0.2 1.41t-0.51 1.07-0.67 0.79-0.68 0.53l-0.34 0.22 3.5 6.08-0.84 0.08q-0.44 0.04-0.9 0.04-0.76 0-1.5-0.12l-3.76-6.68 0.48-0.24q0.28-0.14 0.68-0.36t0.77-0.55 0.63-0.8 0.26-1.11q0-1.26-0.72-1.85t-1.86-0.59q-0.44 0-0.8 0.06v12.14l-0.72 0.06q-0.36 0.04-0.7 0.04t-0.72-0.02-0.78-0.08v-14.38zm15.42 7.14 3.9-7.14q0.46-0.08 0.85-0.1t0.72-0.02 0.75 0.04l0.88 0.08-3.94 6.94 4.28 7.44-0.88 0.08q-0.44 0.04-0.77 0.04t-0.72-0.02-0.87-0.1zm-3.34-7.16q0.38-0.06 0.74-0.08t0.72-0.02 0.72 0.02 0.74 0.08v14.42q-0.38 0.06-0.74 0.08t-0.72 0.02-0.72-0.02-0.74-0.08v-14.42zm12.38 0.02h8.16q0.12 0.6 0.12 1.24t-0.12 1.24h-5.24v3.12h4.16q0.12 0.64 0.12 1.26t-0.12 1.24h-4.16v3.8h5.38q0.12 0.6 0.12 1.24t-0.12 1.24h-8.3v-14.38zm13.42 2.48h-3.58q-0.12-0.6-0.12-1.24t0.12-1.24h10.1q0.12 0.6 0.12 1.24t-0.12 1.24h-3.58v11.9l-0.72 0.06q-0.36 0.04-0.7 0.04t-0.73-0.02-0.79-0.08v-11.9zm8.54-2.54q0.92-0.08 1.86-0.13t1.92-0.05 2.01 0.2 1.86 0.75 1.35 1.53 0.52 2.54-0.52 2.53-1.34 1.53-1.83 0.76-1.99 0.2l-0.48-0.02q-0.24 0-0.44-0.02v4.62q-0.38 0.06-0.74 0.08t-0.69 0.02-0.71-0.02-0.78-0.08v-14.44zm2.92 7.4q0.24 0.04 0.46 0.04h0.5q0.5 0 0.98-0.13t0.85-0.43 0.59-0.79 0.22-1.22-0.22-1.24-0.59-0.82-0.85-0.44-0.98-0.13h-0.4q-0.2 0.02-0.56 0.06v5.1zm8.74-7.34q0.74-0.12 1.43-0.12t1.45 0.12v11.86h4.98q0.06 0.34 0.08 0.65t0.02 0.61-0.02 0.61-0.08 0.65h-7.86v-14.38zm13.2 0q0.42-0.06 0.8-0.09t0.84-0.03q0.4 0 0.78 0.03t0.84 0.09l4.5 14.38q-0.82 0.12-1.59 0.12t-1.49-0.12l-0.8-2.88h-4.76l-0.82 2.88q-0.72 0.12-1.38 0.12-0.74 0-1.46-0.12zm3.2 9.08-1.66-6.04-1.74 6.04h3.4zm15.68 2.58q0.26 0.56 0.43 1.15t0.25 1.19q-1.04 0.38-1.87 0.5t-1.79 0.12q-1.7 0-2.98-0.55t-2.15-1.54-1.31-2.35-0.44-2.96 0.46-2.97 1.33-2.37 2.14-1.56 2.89-0.56q0.96 0 1.77 0.12t1.75 0.5q-0.04 0.6-0.24 1.17t-0.44 1.15q-0.7-0.24-1.24-0.34t-1.28-0.1q-1.92 0-2.95 1.25t-1.03 3.71q0 4.88 4.14 4.88 0.74 0 1.3-0.1t1.26-0.34zm2.86-11.66h8.16q0.12 0.6 0.12 1.24t-0.12 1.24h-5.24v3.12h4.16q0.12 0.64 0.12 1.26t-0.12 1.24h-4.16v3.8h5.38q0.12 0.6 0.12 1.24t-0.12 1.24h-8.3v-14.38z"/>
  </g>
 </g>
</svg>
