<svg id="Слой_1" data-name="Слой 1" xmlns="http://www.w3.org/2000/svg" viewBox="0 0 223.44 43.98"><defs><style>.cls-1{font-size:39px;fill:#ff931e;font-family:PTSans-Bold, PT Sans;font-weight:700;}.cls-2{letter-spacing:-0.03em;}.cls-3,.cls-4{fill:#ccc;}.cls-4{letter-spacing:-0.01em;}.cls-5{fill:#3fa9f5;letter-spacing:0em;}</style></defs><title>logo</title><text class="cls-1" transform="translate(47.67 33.33)"><tspan class="cls-2">P</tspan><tspan class="cls-3" x="21.18" y="0">r</tspan><tspan class="cls-4" x="34.87" y="0">o</tspan><tspan class="cls-3" x="55.34" y="0">f</tspan><tspan class="cls-5" x="67.86" y="0">G</tspan><tspan class="cls-3" x="91.61" y="0">lobal</tspan></text><path class="cls-3" d="M26.87,48.19H27V46.67a12.31,12.31,0,0,1-11.41-12A12.36,12.36,0,0,1,28.19,22.54,12.37,12.37,0,0,1,40.77,34.39h1.6A13.94,13.94,0,0,0,28.19,21C20.37,21,14,27.11,14,34.63A13.87,13.87,0,0,0,26.86,48.19Z" transform="translate(-14 -21)"/><path class="cls-3" d="M28.37,29.39c.71,0,1.42.06,2.12.12a27,27,0,0,1,.34,4.89h1.6a18.7,18.7,0,0,0-.53-4.74c.8.1,1.61.23,2.41.38s1.52.31,2.28.48a14.25,14.25,0,0,1,.33,3.85v0h1.6a11.72,11.72,0,0,0-.37-3.48l2.09.56a20.3,20.3,0,0,0-2.31-1.31,10.74,10.74,0,0,0-.44-1.11A11.08,11.08,0,0,0,34,24.83a19,19,0,0,1,2.26,4.62c-.55-.22-1.11-.41-1.68-.59a23.94,23.94,0,0,0-3.17-.73,16,16,0,0,0-1-2.35,12.83,12.83,0,0,0-.8-1.3,8.76,8.76,0,0,0-1-1.18,21.17,21.17,0,0,1,1,2.76c.19.63.36,1.27.5,1.91-.59-.06-1.19-.1-1.79-.11a21.42,21.42,0,0,0-3.69.23q.23-1.09.56-2.17a21.13,21.13,0,0,1,1-2.76,8.65,8.65,0,0,0-1,1.18,13.13,13.13,0,0,0-.8,1.3,16.09,16.09,0,0,0-1.14,2.69c-.42.09-.85.2-1.26.32a18,18,0,0,0-2.29.84A19.12,19.12,0,0,1,22.08,25a11.08,11.08,0,0,0-3.44,4.22,10.57,10.57,0,0,0-.46,1.16l-.31.19a8.7,8.7,0,0,0-1.23.93c.45-.19.91-.37,1.37-.53a11.65,11.65,0,0,0-.4,3.64A13.57,13.57,0,0,0,18.23,38c-.61-.2-1.21-.42-1.8-.67a9.35,9.35,0,0,0,1.23.93c.27.17.55.33.83.49.14.37.29.74.46,1.1a15.7,15.7,0,0,0,1.36,2.35c.26.37.53.73.83,1.08a9.8,9.8,0,0,0,.95,1,34.45,34.45,0,0,1-1.92-4.72,17.94,17.94,0,0,0,1.78.62c.57.17,1.14.3,1.72.42a20.35,20.35,0,0,0,2.65,5.22c-.5-1.68-1-3.34-1.35-5,.68.09,1.37.13,2.05.15V39.44c-.78,0-1.57,0-2.35-.11a31.92,31.92,0,0,1-.52-4.9,27.14,27.14,0,0,1,.31-4.89A30.18,30.18,0,0,1,28.37,29.39ZM22.23,39c-.8-.14-1.59-.31-2.38-.52a18.89,18.89,0,0,1-.65-4,14.22,14.22,0,0,1,.38-4.06,29,29,0,0,1,2.86-.64l.58-.09a18.77,18.77,0,0,0-.48,4.74,20.26,20.26,0,0,0,.68,4.7Z" transform="translate(-14 -21)"/><path class="cls-3" d="M52.53,47.87V35.15H28V47.87H52.53ZM28.79,41.23V36.12h23v4.52h0V46.9h-23V41.23Z" transform="translate(-14 -21)"/><polygon class="cls-3" points="11.73 33.19 40.6 33.19 40.82 32.51 11.46 32.51 11.73 33.19"/><path class="cls-3" d="M53.45,48.95h-26l-2,4.21H54.93l.07-.23ZM37.87,53l.47-1.35h2.87L41.76,53ZM27.43,51.4l1-2H52.07l.83,2Z" transform="translate(-14 -21)"/></svg>